<mxfile host="app.diagrams.net" agent="Mozilla/5.0 (Macintosh; Intel Mac OS X 10_15_7) AppleWebKit/537.36 (KHTML, like Gecko) Chrome/139.0.0.0 Safari/537.36" version="28.2.0">
  <diagram name="Page-1" id="Ru_Tzyv2AfZe9Akmcx-6">
    <mxGraphModel dx="1634" dy="824" grid="0" gridSize="10" guides="1" tooltips="1" connect="1" arrows="1" fold="1" page="0" pageScale="1" pageWidth="850" pageHeight="1100" math="0" shadow="0">
      <root>
        <mxCell id="0" />
        <mxCell id="1" parent="0" />
        <mxCell id="qxGBXVRAMQtbO13ppMym-42" value="" style="rounded=1;whiteSpace=wrap;html=1;fillColor=#fff2cc;strokeColor=#d6b656;strokeWidth=2;" vertex="1" parent="1">
          <mxGeometry x="-60" y="120" width="799" height="205" as="geometry" />
        </mxCell>
        <mxCell id="qxGBXVRAMQtbO13ppMym-48" value="" style="rounded=1;whiteSpace=wrap;html=1;strokeWidth=2;" vertex="1" parent="1">
          <mxGeometry x="574.5" y="208.25" width="138.5" height="73.38" as="geometry" />
        </mxCell>
        <mxCell id="qxGBXVRAMQtbO13ppMym-51" style="edgeStyle=orthogonalEdgeStyle;rounded=0;orthogonalLoop=1;jettySize=auto;html=1;exitX=1;exitY=0.5;exitDx=0;exitDy=0;entryX=0;entryY=0.5;entryDx=0;entryDy=0;strokeWidth=2;" edge="1" parent="1" source="qxGBXVRAMQtbO13ppMym-45" target="qxGBXVRAMQtbO13ppMym-48">
          <mxGeometry relative="1" as="geometry" />
        </mxCell>
        <mxCell id="qxGBXVRAMQtbO13ppMym-45" value="" style="rounded=1;whiteSpace=wrap;html=1;strokeWidth=2;" vertex="1" parent="1">
          <mxGeometry x="463" y="200" width="74" height="88" as="geometry" />
        </mxCell>
        <mxCell id="qxGBXVRAMQtbO13ppMym-29" style="edgeStyle=orthogonalEdgeStyle;rounded=0;orthogonalLoop=1;jettySize=auto;html=1;exitX=1;exitY=0.5;exitDx=0;exitDy=0;entryX=0;entryY=0.5;entryDx=0;entryDy=0;strokeWidth=2;" edge="1" parent="1" source="qxGBXVRAMQtbO13ppMym-24" target="qxGBXVRAMQtbO13ppMym-15">
          <mxGeometry relative="1" as="geometry" />
        </mxCell>
        <mxCell id="qxGBXVRAMQtbO13ppMym-24" value="" style="rounded=1;whiteSpace=wrap;html=1;strokeWidth=2;" vertex="1" parent="1">
          <mxGeometry x="50.5" y="560" width="75" height="40" as="geometry" />
        </mxCell>
        <mxCell id="qxGBXVRAMQtbO13ppMym-27" style="edgeStyle=orthogonalEdgeStyle;rounded=0;orthogonalLoop=1;jettySize=auto;html=1;exitX=1;exitY=0.5;exitDx=0;exitDy=0;entryX=0;entryY=0.5;entryDx=0;entryDy=0;strokeWidth=2;" edge="1" parent="1" source="qxGBXVRAMQtbO13ppMym-22" target="qxGBXVRAMQtbO13ppMym-14">
          <mxGeometry relative="1" as="geometry" />
        </mxCell>
        <mxCell id="qxGBXVRAMQtbO13ppMym-28" style="edgeStyle=orthogonalEdgeStyle;rounded=0;orthogonalLoop=1;jettySize=auto;html=1;exitX=1;exitY=0.5;exitDx=0;exitDy=0;entryX=0;entryY=0.5;entryDx=0;entryDy=0;strokeWidth=2;" edge="1" parent="1" source="qxGBXVRAMQtbO13ppMym-22" target="qxGBXVRAMQtbO13ppMym-15">
          <mxGeometry relative="1" as="geometry">
            <Array as="points">
              <mxPoint x="166" y="505" />
              <mxPoint x="166" y="580" />
            </Array>
          </mxGeometry>
        </mxCell>
        <mxCell id="qxGBXVRAMQtbO13ppMym-22" value="" style="rounded=1;whiteSpace=wrap;html=1;strokeWidth=2;" vertex="1" parent="1">
          <mxGeometry x="50.5" y="485" width="75" height="40" as="geometry" />
        </mxCell>
        <mxCell id="qxGBXVRAMQtbO13ppMym-25" style="edgeStyle=orthogonalEdgeStyle;rounded=0;orthogonalLoop=1;jettySize=auto;html=1;exitX=1;exitY=0.5;exitDx=0;exitDy=0;entryX=0;entryY=0.5;entryDx=0;entryDy=0;strokeWidth=2;" edge="1" parent="1" source="qxGBXVRAMQtbO13ppMym-21" target="qxGBXVRAMQtbO13ppMym-10">
          <mxGeometry relative="1" as="geometry" />
        </mxCell>
        <mxCell id="qxGBXVRAMQtbO13ppMym-26" style="edgeStyle=orthogonalEdgeStyle;rounded=0;orthogonalLoop=1;jettySize=auto;html=1;exitX=1;exitY=0.5;exitDx=0;exitDy=0;entryX=0;entryY=0.5;entryDx=0;entryDy=0;strokeWidth=2;" edge="1" parent="1" source="qxGBXVRAMQtbO13ppMym-21" target="qxGBXVRAMQtbO13ppMym-4">
          <mxGeometry relative="1" as="geometry" />
        </mxCell>
        <mxCell id="qxGBXVRAMQtbO13ppMym-21" value="" style="rounded=1;whiteSpace=wrap;html=1;strokeWidth=2;" vertex="1" parent="1">
          <mxGeometry x="46" y="220.25" width="75" height="40" as="geometry" />
        </mxCell>
        <mxCell id="qxGBXVRAMQtbO13ppMym-46" style="edgeStyle=orthogonalEdgeStyle;rounded=0;orthogonalLoop=1;jettySize=auto;html=1;exitX=1;exitY=0.5;exitDx=0;exitDy=0;entryX=0;entryY=0.5;entryDx=0;entryDy=0;strokeWidth=2;" edge="1" parent="1" source="qxGBXVRAMQtbO13ppMym-10" target="qxGBXVRAMQtbO13ppMym-45">
          <mxGeometry relative="1" as="geometry" />
        </mxCell>
        <mxCell id="qxGBXVRAMQtbO13ppMym-10" value="" style="rounded=1;whiteSpace=wrap;html=1;strokeWidth=2;" vertex="1" parent="1">
          <mxGeometry x="211" y="179" width="206" height="52" as="geometry" />
        </mxCell>
        <mxCell id="qxGBXVRAMQtbO13ppMym-1" value="&lt;font style=&quot;font-size: 20px;&quot;&gt;&lt;b&gt;papers数据库检索流程&lt;/b&gt;&lt;/font&gt;" style="text;html=1;align=center;verticalAlign=middle;whiteSpace=wrap;rounded=0;" vertex="1" parent="1">
          <mxGeometry x="247.38" y="124" width="226" height="30" as="geometry" />
        </mxCell>
        <mxCell id="qxGBXVRAMQtbO13ppMym-2" value="&lt;font style=&quot;font-size: 16px;&quot;&gt;blogs数据库检索流程&lt;/font&gt;" style="text;html=1;align=center;verticalAlign=middle;whiteSpace=wrap;rounded=0;" vertex="1" parent="1">
          <mxGeometry x="-50.5" y="420" width="167" height="30" as="geometry" />
        </mxCell>
        <mxCell id="qxGBXVRAMQtbO13ppMym-3" value="&lt;font style=&quot;font-size: 16px;&quot;&gt;英文查询&lt;/font&gt;" style="text;html=1;align=center;verticalAlign=middle;whiteSpace=wrap;rounded=0;" vertex="1" parent="1">
          <mxGeometry x="50.5" y="225.25" width="66" height="30" as="geometry" />
        </mxCell>
        <mxCell id="qxGBXVRAMQtbO13ppMym-47" style="edgeStyle=orthogonalEdgeStyle;rounded=0;orthogonalLoop=1;jettySize=auto;html=1;exitX=1;exitY=0.5;exitDx=0;exitDy=0;entryX=0;entryY=0.5;entryDx=0;entryDy=0;strokeWidth=2;" edge="1" parent="1" source="qxGBXVRAMQtbO13ppMym-4" target="qxGBXVRAMQtbO13ppMym-45">
          <mxGeometry relative="1" as="geometry" />
        </mxCell>
        <mxCell id="qxGBXVRAMQtbO13ppMym-4" value="" style="rounded=1;whiteSpace=wrap;html=1;strokeWidth=2;" vertex="1" parent="1">
          <mxGeometry x="211" y="254" width="206" height="52" as="geometry" />
        </mxCell>
        <mxCell id="qxGBXVRAMQtbO13ppMym-5" value="&lt;font style=&quot;font-size: 16px;&quot;&gt;pgvector语义检索&lt;/font&gt;&lt;div&gt;&lt;br&gt;&lt;/div&gt;" style="text;html=1;align=center;verticalAlign=middle;whiteSpace=wrap;rounded=0;" vertex="1" parent="1">
          <mxGeometry x="223" y="197" width="139" height="30" as="geometry" />
        </mxCell>
        <mxCell id="qxGBXVRAMQtbO13ppMym-7" value="&lt;div&gt;&lt;span style=&quot;font-size: 16px;&quot;&gt;tsvector关键字检索&lt;/span&gt;&lt;/div&gt;" style="text;html=1;align=center;verticalAlign=middle;whiteSpace=wrap;rounded=0;" vertex="1" parent="1">
          <mxGeometry x="223" y="270" width="139" height="18" as="geometry" />
        </mxCell>
        <mxCell id="qxGBXVRAMQtbO13ppMym-8" value="" style="shape=image;verticalLabelPosition=bottom;labelBackgroundColor=default;verticalAlign=top;aspect=fixed;imageAspect=0;image=data:image/png,iVBORw0KGgoAAAANSUhEUgAAAMgAAADICAYAAACtWK6eAAAAAXNSR0IArs4c6QAAAERlWElmTU0AKgAAAAgAAYdpAAQAAAABAAAAGgAAAAAAA6ABAAMAAAABAAEAAKACAAQAAAABAAAAyKADAAQAAAABAAAAyAAAAACbWz2VAAAJRUlEQVR4Ae3dAXacOAzG8bav94r3ZNGejOnJsvrasKXpBMxYAuz5+z0aAliWf0Jpt03efvnCQAABBBBAAAEEEEAAAQQQQAABBBBAAAEEEEAAAQQQQAABBBBAAAEEEEAAAQQQQAABBBBAAAEEEEAAAQQQQAABBBBAAAEEEEAAAQQQQAABBBBAAAEEEEAAAQQQQAABBBBAAAEEEEAAAQQQQAABBBBAAAEEEEAAAQQQQAABBBBAAAEEEEAAAQQQQAABBBBAAAEEEEAAAQQQQAABBBBAAIEwga9hkZ47ULng9m8XzImUnkyg+H4nP94ueig384OBwOECV26Mjw1rh+uw4FML9NQcc7MoZwYC6QLmK8wvXW8faZL01+O5FygdN8fczNoDo1LgW+VzPPZLoAwA8TrAHg7bAg2yj/pl3+M83bsA/w6yr4L6Y8oIg7pXVvF75XM1jxV/aPnbtz7XuP389cuXH+/n8+fvl/mAwC6B4k/P75nOP45/3y/Yxxtnfa5E9JW19pj8Wc3pcdTu8erP9WhfPGm9O3tszZ8/bRRfeW/Cy81prmL0NJb593zek3nxZPWutHibzz90mK/WkvByrmL1MpZ593zei7d5olHOinXIMF8lKuk5jmL2MOZ8e//Yg7V5ktHOipk6zKNHJz3HK6mZxwSfc+39Y4xGXhTz0FnGip0yikfNSnqOm5J4YNA5z94/BpKkhMr2LRlZZyet+JaReGDMIwyOWCOQJDyUecRsg6k269p/B1HSR4xXX+TliIVOWuPm685/T/9oCjIqj05+n1f9gjSu88j08siknXO0ho6bHyHDPMobR7NBxIupGNSi3aCqFrXfi/XqRWEgMJJA8c3oWB01DVJWI3ATgYEFaJCBi8vWNgXK1hM1DbIVg/sI9CrwspU4DbIlxP2RBfQd5quDBlnl4eazC9Agz/4GsP9VgZoGua1G4CYCAwvQIAMXl61tCtjWEzUNohi3rUDcR6AzgVtNvrUN0vr9QzW58AwCRwps/g2WkqltkJs/q4OBwCgCVrOR2gZRLH4XqRHlmR4E0t5l891nfSepYp8xii+q7+zM2tcyrtZpHUfmWlqTfXC+1l26RZ7bgzlVT8soUHrSn+yu+PVI/K1YsmsdGf5reVtrwg/O17preT1yTzEPGearPJLgvTmKdcYwX/RePlz720VWZwzzRaPqoViHDvPVWpMvh2b8azGtOfnRmvszzpfd0aP4gq31sqOTXq6nxfe8LNqs5pwxzBfdkyvP/u0lwzOG+aJ766E5lxnmmei4t4nJr+sofpw1tP693Li238XOKqKvq7V13KunrukofjAqBYo/RxPkGFhlDXjsogIqIM2RayBjRocC5jnTHMcYyJrRkYB5rjTHsQYyZ3QgYJ4jzXGOgewZFxYwzy2rOabE2Fk5fxY300mxGRcUyHyB7X2/mWt89jJHX5/3oo/Rsed407sXHy4ioILMxYn8qLhlsUedR8Y/I5Yt9qNTfZ6Rh+wYFxBQITIKbJ/sLWu9jD3ci3lvW9rrvWdbr033FuPacQIqQGsRP85XzLKyBd37OKeXz7f2pb1H70UxGScIZBTTKveh56JfpOx45cS90SSV+FGPmQeKfqEUc+8wnxCdR3Q8vZzFjz3D/OHoPBSzu/G1u4x//Ufla3De+hFMa4g5z31piBE9df6x0tuDgc3nXc35wa08zzQVLforW3kevt07lU20t+3OgglVAsWfiizW5PEUk7EtIKtI+7K9JE/sFYgskArO2Cdg/nhkDfatztOrAnqho4pjqytxc01AdlF1UE0ZAQLmMaKKoliMNgHz6dSjzTBsNsUIowwNpK/+NEko6f5gFlgEFZQRKxDZJCU2teeIFlUAmiPvfaFGebarkc3vvgUcNMcqc8jNqCaxkGyeJAjN0Veho5qk9LXtc7I1XzaiQc7J/jlXLUE1U6MxVgTM70U0h+IwjhUovhy1SzYHOBk4Obx5/IgaluQ8uwxvnnUrrmIwzhWYfPnWOioGYyFgfg7qAqTz04gmKZ0bhKbf2hyaD2hoSZqCqRYRNW1KImJyyw9MCUHHix+to7QG8PnLHxC6BcQjxH6B4lN0zO+EzlvGrWWyz/2xmG+L89RTLRTx1SE7hvJkHCNQfJnJj+yatsY3zzF19ICwRLRUDYJLwPxYml/9XO9wylDgq2/+Xn6WokFQCZgf98yvfm1S8pHDPNjVN72WX4nEINZPAZmumV/9nv3cRdAvV9/sVn5TkANhfguYn265X/3+7900nI0AoUIxYgWu/vLX5Fe2SL5tPTDQ/U2MgfaavZVRLDf38UwNkv3SEL8/gZetlGsaZDPI1iLcR6BXgZoG6XVv5I1AswAN0kxIgJEFaJCRq8vemgVokGZCAowsQIOMXF321ixAgzQTEmBkARpk5Oqyt2aBoxpEP5jVcvzTvFMCXE1ANW15JzQ3fRzVIOkbYQEEMgRokAxVYg4jQIMMU0o2kiFAg2SoEnMYARpkmFKykQwBGiRDlZjDCNAgw5SSjWQI0CAZqsQcRoAGGaaUbCRDgAbJUCXmMAI0yDClZCMZAjRIhioxhxGgQYYpJRvJEKBBMlSJOYwADTJMKdlIhsD3jKB3YpY71/Zcap2/Zy2ePUagi5oe1SDTMeas0pHAq+eq49KDP2Jdujwkd7YADXJ2BVj/0gI0yKXLQ3JnC9AgZ1eA9S8tQINcujwkd7YADXJ2BVj/0gI0yKXLQ3JnC9AgZ1eA9c8U+LG1eE2DbAbZWoT7CIwsUHxzbwMcI9fojL2N8E6UKLjJA/UMYlEQxPlfQKY9vxPKPWwUj9QzRhgEgf4Q6PmdsD92EvCJAvYIUgL2Toj7ArLt8Z2w+9tpv6rAPYGU9i0TYUNAxj29E7axn+bbxSOYH1dGUX6MYwXMl7vyOzF5fsWPXaP1f0JSdq12zMO3Y5ZhlU8EyifXz7x8O3Nx1kYAAQQQQAABBBBAAAEEEEAAAQQQQAABBBBAAAEEEEAAAQQQQAABBBBAAAEEEEAAAQQQQAABBBBAAAEEEEAAAQQQQAABBBBAAAEEEEAAAQQQQAABBBBAAAEEEEAAAQQQQAABBBBAAAEEEEAAAQQQQAABBBBAAAEEEEAAAQQQQAABBBBAAAEEEEAAAQQQQAABBBBAAAEEEEAAAQQQQACBd4H/ADZWdzKN0FaoAAAAAElFTkSuQmCC;" vertex="1" parent="1">
          <mxGeometry x="366" y="183" width="44" height="44" as="geometry" />
        </mxCell>
        <mxCell id="qxGBXVRAMQtbO13ppMym-9" value="" style="shape=image;verticalLabelPosition=bottom;labelBackgroundColor=default;verticalAlign=top;aspect=fixed;imageAspect=0;image=data:image/png,iVBORw0KGgoAAAANSUhEUgAAAMgAAADICAYAAACtWK6eAAAAAXNSR0IArs4c6QAAAERlWElmTU0AKgAAAAgAAYdpAAQAAAABAAAAGgAAAAAAA6ABAAMAAAABAAEAAKACAAQAAAABAAAAyKADAAQAAAABAAAAyAAAAACbWz2VAAAT/UlEQVR4Ae1dDZLlKM7c2dh7lfZkpTmZ3SfrL3PnEU35849kAxY2iqDBOJEyE6j3umd65l//GjEcuNcBvbf8fvX/7L8eb4cDVR2YqmYvkPzfBXKMFMOBMw7wcsiZhS3XjAvS0u1RKznQxeUg2XFB0paNvpUD3VwOGjIuSKtjMerQga4uBwmPC0IXRrRwoLvLQVPGBWlxNEaNLi/HuCDj4LZwQFFEWhQaNYYDvTmgIPz7oPHTZcRw4HUOKBQfXQ6+HxfkdUdjCFZYYLkc44KMs/I6BzyXY1yQ1x2Pdwv2Xo5xQd59Xl6l/szlGBfkVUfkvWLPXo5xQd57Zl6j/MrlGBfkNcfknUKvXo5xQd55bl6husTlGBfkFUflfSJLXY5xQd53dh6vuOTlCH9Bxt9JL3ueZSVdPjdn7/NxNh16qGD3HZphYXLjgtgNlQ+U/ddnzE6y8dFw73DN2eJfnzHn2CKEgsQe/wgcB4dGDgjqsE2f9hv9nY089NMEfetQFKyln9pGBHdAwI+Nm1XrIJTOS676aeiqhSJzae55PuoYEdABASduDlu+Yb2NFfxrhSJxbT/o/4ggDgh4cENqb3rL/NRUIxRJz+oQx1rux4gbHRDU5iawnd3wyOsgq3goMp7VLB821vXTBz+6xg4I6tF860b1iFPoKx2KhGe9kIyMNceUrRnDBg4oalg3p3dcaTuveCcLMlZvxwVZGFfrUZHYuilPwJU+WFf8E3i/DKvHpXUsebz+WeGAdTOehKPuUqFIdNYb2SBhzTdtrA8x3fM/SVc4+B3AxfnDIf3T75xSepfmJA0+/dfiefl+8frHo/54Ov/APGd9/C/WzmgjAjkg4MKfOr8bNtZjUzT5NHTVQpGZbUsn50uEIsnvk02wbi+seUtp2ePyincClTTTavwVHOuwCVqUEBDRrGF4KRSrz3okhsrW3PR5xEUHFOuthp/FcaPk09A9OhTqzvokRmes+en7iJMOCNbRQKvZXhxzs8abQiHW61PCi8OotOaonxw5BzRzQDE+MvfMe26IoL0xFKLPeMY1guYJax3uxwiHAwIsTbMabMUpcgraW0Mh3OrVEicnTFvm2HqeTuRutuSvZpVshQSw0ob9jZyK9uZQiP8+acDZP8rlhbDEDNAvC/AGDLmFCQUTmlqiTcgjaCP+cUDRnfFV/ll+6tcz9SKt4RkKEQIWJFPCHOZhvhE/HVA8ev2VnyncT956kfA8RyFCwKKUMRpCUUwS9MbjsxSQ4akXCTsV0F4kBTehhDEUxFwjth1QvLJ6LdtpXG+s9SLheJZChIJFCWMkhJr4JBQUrX6XUmOtFwU3lRJ+NY8iwVVTmGOE3QEF1Oq5Pes+0lovAm7al9LuraLUVUOkHd3HVFIosfpeSrS13t24qZTgq3kUCa6YQSGCNsLvgGKJ1Xt/9vUV1np34nimQoSCxRUjuH7EeQcUS63+n6/yc6W13l246Sfd+54Upa+YIPdRf0xlhRLrHpQSba13B24qJfJqHkWCswZQhKCNuO6AIoV1H65Xa5OB58OqKcdxXYhQsMiJecZhRIRw8joJz15cr1Y/A8+H5zwlbJhzJScFUEgYEeDylFAISYfkqI+umefjSMPae64LEQIWawQtcxpCwfNI0FeL/8REjgnkrDpyHNeFiZyYZ6xhFDyPCL217kVU9TzkVg05juvChIJJTs465roR9RxQpLbuRT0W5zPzkFv55ziuCxMKJjk565jrRtR1QJHeuh91mfiz85Bbuec4rgsTCiY5OeuY60bUd0BRwron9dnYK/CQW3nnOK4LFTk56ziciFCOliWjSGfdl7KVz2fj+bByznFcFyoUbHKClnE4EaEcLU/Gs0flq/sz8nxYztESE+5ceYxPYsKJ8O9fdys8+3S3OJ6PdFY8fchz5RGQsHL3DrywvkJz8v+ov9OeycEz18F14ULBKCdpGXPNiPYOKEpa9oeYu2JCYSvHHMd14ULBKCdpGXPNiHscUJS17BExd8SEolZ+OY7rQkZO0jIOKySku+VJKVJa9omY1sGzYeWW47guZChY5UQtYwmp5D2kFFIt+0RMy5hQzMorx3FdyBCwyolaxhpSybtIcQ8se0VMq5hQyMopx3Fd2FAwy8kejYkfcb8DCgpHe5Xet2A7OfgkXuy5rmn8x1FNgf124AlVJ75HuGSk0/hrZY5T82d++R9r1s98hI4HMWLMIMX/kHbYoHGepmGVXCcmSDF9mseTLawiV81QJN+q3cP8VNOcErnPGFyibqQcAjLcKLbShwopq4Yie2nOrfLR79vC8xXLQ/JvDzgwVsDtG419rWjh1Vct8pXzzsgf+msV9Sua56cF8U8IhQiP7rNYqWzW1EjHWf1b68i7i1Cw3BKxNt+FqB2SXr1rHnjmdqhcfjUhg4dLFCx5dxEKlh7TiO81BMS5MR69V7GKerWitZarXqT15N1NKJgm4pa+G2EZUcGYm2LRVxqT0Sg6vEvPVX/Iu6vwCNaulP1DVtB5NJbE1joMzFuSZ6tctfz4Z6cr/KpOo6UCh5opFclbbf5aHdYvHTxka7Wiz5F3yPhrhxVNtQb/qFKt4AA4cv1uwGNeqSGfuT3vV5YdTvGQySFqHTCvTzebDf9HuUsnFBO8INZGfC/Bg2TVZcUxp2QNw6ZxRZM0ZfqQYgodnsPRi+wrB2npB3NJAOFXNEXgH8BCP4XlYdh7Vn/6W1ZcOUhJP3PILezXi17RFEnHurqgswpe6UBY+qAyftDyalrq5kGUHxnvfyCnJU/rczQt97vpYKDAWo0mNnooCFr1rOG4PlpMILTG1TIn0cT0xsdicsJocHHkl7h6+ymoNvLyakl4CaqpG1oKpslMSx9ZmDi15Ho1qLDpgiYJqslLizroA1vzUFTMD8remNjIscd9750GFTWB1x7vvXcSVJOHFjUsPeBc01gS6NV0hWt73LfeSVO37cU8+7LUFlWTRT2572lvrm1p7t6zReAdGJq2x3vrHddFjAmktjgfzUtEQQZO5G3RTUyzUFQ6Mjy9JzZqKIglntaeayLGBFJWDUucRBRk4ETeSy1bz5MhXzGIOogRGzEUpLbM3JrnmojBzd/ifDQvEQU5OB3py98305oXPRo3I+UwlVBFO+Kevyc+YkwglfP0jCWiICcnj/5mej2b4NTbBK6o4tHATYgYnsOx1CsRBZ3gpFiz1Lb1TL+qh6DCFoHlvFZnc67AkufRc0QdE6Qf8d56L+dsC7mKWrZ0LuenFgrUQYjYaKEgtDRu75n4aMGN3uO8906iiSnAZ0/v8l2Bcusp/r0+vTs7777t46UGozmBj5zkxL9sNJ9cG3mZR5PUFsINWt7KrefaXM7k3+K6Nq9nClRcMyH3Gk/LnFTkdXdqjy/VfbBsRsLcbdyyvmIicbP0y/V3Pk9O7rk+uZN4g9rUl+vdG2stPt6vWHMtIo3y8u/ORwleDjlJ5qlfq07a8a+vswst6wSgvduZv1NLwsaYnN/ROAJ/gT8T2hHXrfdc/5bY8mA5P9UyhP/xaqmVvEFeL3dtwGmvBPle2czxybHnboV3vX/F4oGzxt1frwREx+Ww7tY/uNkIFyPODfNeEHeBygu+KucvlV6QKPLlSPzYj1g4oHj+bWyLpbc/8tBF5y4OjmtauL5GCJIu/eNcpFjyW/MnzUkt4h4StTiczZvMOeqp8Y4QFD3itvee60uHICH9WKurmI8UWzzXuEsN4r1/xbJ68ssKLIgT5OIGn42SvyEXkEiHjT2fe4g79u2HL/xTrF5DAhMntyiXgzZZuXwRPOKPA2/5BPmjuP5IUMJ6INfYlPzkSPnnNBi9zwFeEDEumY24VjBpVchRh5yiXQ4H/XDQ2cFIHFgz9C2fILPZkfNAwdLeLwc1jMgceMsFySRXG35fyFzja9UFOmNpcmBckOTE9f7sIT+77jrjkeHQgZ4vyHyorj3Ae9i9+PaKXl6RF2R+uQel5VsPvRVXgp8Yk8xG3Gtgnk8Q6diV1tyPDv/R+46tLkrds29z0cqfZJ4LUqP+lZyzY/GXA1sKunUJtuZL1b2S59eVxU9c2/MF6WE/lpdh+dxCg7Qo8tQa44LU39l0KVJfv+LPCvLzcTx5HOj9gsxGsQIc211x1+Xw6p29CwLhq3DnBfnlECkO7IDGcODKP8C8W8Edv3f8f5oVM7+NTYCLFAIyVu5TJOKNuKjDH/oYLax7W407P0FmhyviwLaAzo4iAizbiHUH/l6f7mJ2rsWSF8QTXx5wI+zcqE6PZb57JP3hLA7unt8mONL+gVo/yqY/S8KMBEx65l/LSHX4Qv+ihYKQdV+JrRLpE2Q2ZhcjLiqM/NlG/HSg569XP5UUfkoXxJNWPOAG2Bk12KzxbQV2jFNwf4POtEVzGtTqFYmtH2dSi8SFvJODP3XKhVo9LLXuZcJF1OTZ0+r8BRWSWUc9iUcLAaEj3vn7iBpKeapOL4iPGPl+HY2r8xdUOCKR3k/V2ZwrQF6Jo6XXc2XCr7JozzERBXFvco5746mVgD0Sy3etOHnqCMBLnkfPXPOkUIg50py/Jz5iKEjlPPfGxDaJCVX2iOTvpAkjfxHFkpynZSz+MiFXKFhZ9OaYkEJAanJokVYi1EGKAqJGfgAs48harB4rgBatOYZrokbO82jcTIOg0hGZ9H5qxspfSB06etBz5ICc0EvdUUNBLO3LUT+1FnFEKH/fmpunHo3LuVrG6ikQBCvgYdG2xGgQ/ms0yG3Jd+uZ2KYxodoWmeW8NGXmK0ZuS76WZ/WVuRUtqG7RtIa5lfhB8TW+W3P0oGkIqm2RWc5PTZn5i6lDS66NugQtcijI5Zw9YwksjNw8WppL8RIkPnLwsHsMz7EaVBh55Tw946iaktUebbdpmcDWaroAGz08epa6NZA4AZenaNmyden/3rNuJak979kEYqOHgOCe0ZZ3eqNI8vfsyZqeO/lbrSPHNe5bc9a8xXHiJEp89FAQ3DLaM888LUNRzMNvDTu1JHyhlkcrsbcGTV0ze23uiRuwpjPNKbxhqxWCxPQ01bva1+JZOq9Hp5Yu7s0nWOAh7M1/F16duo48mJCPOa+GIAFzHdXzvGc+5u0hFCQ92ppp+mujkmCeBlvjvwDOVvDNOEX970ocZuTN/340n5chn4mvT5+eP49FuhlZuCe9BC+HNf4GUK3gmjheEBK3NGJ7CgFZi64eMdrTRoAr+Xp8FuBDhIBFl8Qd7k1OjR4/7sCqQ3sUqNenKLz/x8NDfgrF3E5GAfXojIoVu+QwSAUTj5/EhwoFG48ACcXeTkYB9eiMhJ3AXdB6DK+PITV6RHCzeg4FeY/eO7H0WtB6DQVxj3/EhwwFK48QCanCR0oB92huiZ3ATdB6D69nofU+SozDaQXWq70WfgIXQXtCKER4fCI+dHBzHiXI6bYC7/XA49celnUF7Umxp3ftXXjtAoZrxPfmuOaJoRA1oe1pv/qO+QXtiaEQ5fGH+C6Cm+YRRvzTQyGQzetN7iPXpiYYPzkU4nLtlvGtfvzlqC7AciM9EeZfC/CQLoCVT47Up5RzGqDPx9n0o4e8EJ7o7vwo1FlufY7xGDKwz3VAIS0/F5Zxl25MTqHEj3i3Awr5lguRY7imyxCwzoVYxtql0kG6lAOWM5Jjuj8vE5zLBVnGUsrtkacrBxRsLecjx0hXClfIUkAuyDpeSTWmHuyAQpv1bCQc1zwiFCqSKGs/PUL5EGFxQAGynoscZ8ndDYYHPhdnGWs36gbRKw5YzsIS87izIXBwKdLy/Dgj4MOIPw5MGFrOQY7RP8ufNaKwXKh1LM+yYaj5OKDorWcg4aanu3fGFJojTzfmZfoUetOh9/TyBp/4U8BjSsK+wpwXHAA9uf9c94oQqEyH3tu/wqAHi9STe891rwqFWu/lIH56lUvPEquQM/bcsadnDaPJ4qgzoPc7oKBw5nK8fq+nYdz9p7cyA72wx1z7+rhySfT17sU2YOxtof0ZRhYyMlCasaeFN+M38p1tWpjLSHfeAcHScTnO+7e5ksaevSBcp2gj7nVAUX7sYcU9kIsGj4tScXMOUuvFveP6EQYHBJgrP4XGJTGYXBDC/ZrQruyZYv0IhwMC7BXDxyVxmH0BqmOfLrhXYOnVn0zjohTYhJUUgrmxNyvG3DFVYiOYQ+8g/8Ca9JE/eK425hlRyAFFnqsbwvXMM+KcA4JlE1qJfWCuEYUdUOQrsTnjovg2RgAvdTHoPfONqOSAIm+pSzIuyv4mCV6XvBjMNaKBA4IaJTduXJSfmzb8/elHt08K5jzcJRtzvjUEwkv/4OHeMO+ImxxQ1C15QVIu5hW0N4RAZI2LwZwjAjgg4FBjg/PLEkBmUQrDs6J29pFMQTMd6ho987P1GgLiNX+Q0HPmZ50RgR1QcKtxQfKcPAiswxY1BMTYyDXnXmvMWiM6cUDBs9ZBWMs7oR5rst0VgsJs5LLGsdacot7rw/O/YItkloLM902E5k/dX5+ez2xXQj6L2X9l48+waTejGv/XZ+xfH71ekLRxisFdFyVx2OrnrReYl513d72aUXhcjLvcr1xXkb/WV42n553gnaCNeIEDCo1PP9Cl9I2L8YILsSVxXJTtHxTjYmydmpX53n8PsiLpx5R+nr5/zL7vYf5IHr/HeN/emxUrkPzp+ftFbXxaYLNH+BwQwBXtqRdlXApsbql4+lesI58EADbG9z9dd7/OH8bj61N3W9cfYQFlReNP4aifMOTGJmgjKjvw9k+QI3sFALYUXxhIemjQz58av9Cnceo/r0ZX04FxQc67K1jKloKXZxmynMDzvDLHC8CY//frn/7zOLq7HPg/txhkix/hmCoAAAAASUVORK5CYII=;" vertex="1" parent="1">
          <mxGeometry x="372.5" y="260.25" width="37.5" height="37.5" as="geometry" />
        </mxCell>
        <mxCell id="qxGBXVRAMQtbO13ppMym-12" value="&lt;font style=&quot;font-size: 16px;&quot;&gt;英文查询&lt;/font&gt;" style="text;html=1;align=center;verticalAlign=middle;whiteSpace=wrap;rounded=0;" vertex="1" parent="1">
          <mxGeometry x="54" y="490" width="67" height="30" as="geometry" />
        </mxCell>
        <mxCell id="qxGBXVRAMQtbO13ppMym-13" value="&lt;span style=&quot;font-size: 16px;&quot;&gt;中文查询&lt;/span&gt;" style="text;html=1;align=center;verticalAlign=middle;whiteSpace=wrap;rounded=0;" vertex="1" parent="1">
          <mxGeometry x="54" y="565" width="68" height="30" as="geometry" />
        </mxCell>
        <mxCell id="qxGBXVRAMQtbO13ppMym-14" value="" style="rounded=1;whiteSpace=wrap;html=1;strokeWidth=2;" vertex="1" parent="1">
          <mxGeometry x="211" y="479" width="206" height="52" as="geometry" />
        </mxCell>
        <mxCell id="qxGBXVRAMQtbO13ppMym-15" value="" style="rounded=1;whiteSpace=wrap;html=1;strokeWidth=2;" vertex="1" parent="1">
          <mxGeometry x="211" y="554" width="206" height="52" as="geometry" />
        </mxCell>
        <mxCell id="qxGBXVRAMQtbO13ppMym-16" value="&lt;font style=&quot;font-size: 16px;&quot;&gt;pgvector语义检索&lt;/font&gt;&lt;div&gt;&lt;br&gt;&lt;/div&gt;" style="text;html=1;align=center;verticalAlign=middle;whiteSpace=wrap;rounded=0;" vertex="1" parent="1">
          <mxGeometry x="223" y="495" width="139" height="30" as="geometry" />
        </mxCell>
        <mxCell id="qxGBXVRAMQtbO13ppMym-18" value="&lt;div&gt;&lt;span style=&quot;font-size: 16px;&quot;&gt;pgroonga关键字检索&lt;/span&gt;&lt;/div&gt;" style="text;html=1;align=center;verticalAlign=middle;whiteSpace=wrap;rounded=0;" vertex="1" parent="1">
          <mxGeometry x="221.5" y="571" width="151" height="18" as="geometry" />
        </mxCell>
        <mxCell id="qxGBXVRAMQtbO13ppMym-19" value="" style="shape=image;verticalLabelPosition=bottom;labelBackgroundColor=default;verticalAlign=top;aspect=fixed;imageAspect=0;image=data:image/png,iVBORw0KGgoAAAANSUhEUgAAAMgAAADICAYAAACtWK6eAAAAAXNSR0IArs4c6QAAAERlWElmTU0AKgAAAAgAAYdpAAQAAAABAAAAGgAAAAAAA6ABAAMAAAABAAEAAKACAAQAAAABAAAAyKADAAQAAAABAAAAyAAAAACbWz2VAAAJRUlEQVR4Ae3dAXacOAzG8bav94r3ZNGejOnJsvrasKXpBMxYAuz5+z0aAliWf0Jpt03efvnCQAABBBBAAAEEEEAAAQQQQAABBBBAAAEEEEAAAQQQQAABBBBAAAEEEEAAAQQQQAABBBBAAAEEEEAAAQQQQAABBBBAAAEEEEAAAQQQQAABBBBAAAEEEEAAAQQQQAABBBBAAAEEEEAAAQQQQAABBBBAAAEEEEAAAQQQQAABBBBAAAEEEEAAAQQQQAABBBBAAAEEEEAAAQQQQAABBBBAAIEwga9hkZ47ULng9m8XzImUnkyg+H4nP94ueig384OBwOECV26Mjw1rh+uw4FML9NQcc7MoZwYC6QLmK8wvXW8faZL01+O5FygdN8fczNoDo1LgW+VzPPZLoAwA8TrAHg7bAg2yj/pl3+M83bsA/w6yr4L6Y8oIg7pXVvF75XM1jxV/aPnbtz7XuP389cuXH+/n8+fvl/mAwC6B4k/P75nOP45/3y/Yxxtnfa5E9JW19pj8Wc3pcdTu8erP9WhfPGm9O3tszZ8/bRRfeW/Cy81prmL0NJb593zek3nxZPWutHibzz90mK/WkvByrmL1MpZ593zei7d5olHOinXIMF8lKuk5jmL2MOZ8e//Yg7V5ktHOipk6zKNHJz3HK6mZxwSfc+39Y4xGXhTz0FnGip0yikfNSnqOm5J4YNA5z94/BpKkhMr2LRlZZyet+JaReGDMIwyOWCOQJDyUecRsg6k269p/B1HSR4xXX+TliIVOWuPm685/T/9oCjIqj05+n1f9gjSu88j08siknXO0ho6bHyHDPMobR7NBxIupGNSi3aCqFrXfi/XqRWEgMJJA8c3oWB01DVJWI3ATgYEFaJCBi8vWNgXK1hM1DbIVg/sI9CrwspU4DbIlxP2RBfQd5quDBlnl4eazC9Agz/4GsP9VgZoGua1G4CYCAwvQIAMXl61tCtjWEzUNohi3rUDcR6AzgVtNvrUN0vr9QzW58AwCRwps/g2WkqltkJs/q4OBwCgCVrOR2gZRLH4XqRHlmR4E0t5l891nfSepYp8xii+q7+zM2tcyrtZpHUfmWlqTfXC+1l26RZ7bgzlVT8soUHrSn+yu+PVI/K1YsmsdGf5reVtrwg/O17preT1yTzEPGearPJLgvTmKdcYwX/RePlz720VWZwzzRaPqoViHDvPVWpMvh2b8azGtOfnRmvszzpfd0aP4gq31sqOTXq6nxfe8LNqs5pwxzBfdkyvP/u0lwzOG+aJ766E5lxnmmei4t4nJr+sofpw1tP693Li238XOKqKvq7V13KunrukofjAqBYo/RxPkGFhlDXjsogIqIM2RayBjRocC5jnTHMcYyJrRkYB5rjTHsQYyZ3QgYJ4jzXGOgewZFxYwzy2rOabE2Fk5fxY300mxGRcUyHyB7X2/mWt89jJHX5/3oo/Rsed407sXHy4ioILMxYn8qLhlsUedR8Y/I5Yt9qNTfZ6Rh+wYFxBQITIKbJ/sLWu9jD3ci3lvW9rrvWdbr033FuPacQIqQGsRP85XzLKyBd37OKeXz7f2pb1H70UxGScIZBTTKveh56JfpOx45cS90SSV+FGPmQeKfqEUc+8wnxCdR3Q8vZzFjz3D/OHoPBSzu/G1u4x//Ufla3De+hFMa4g5z31piBE9df6x0tuDgc3nXc35wa08zzQVLforW3kevt07lU20t+3OgglVAsWfiizW5PEUk7EtIKtI+7K9JE/sFYgskArO2Cdg/nhkDfatztOrAnqho4pjqytxc01AdlF1UE0ZAQLmMaKKoliMNgHz6dSjzTBsNsUIowwNpK/+NEko6f5gFlgEFZQRKxDZJCU2teeIFlUAmiPvfaFGebarkc3vvgUcNMcqc8jNqCaxkGyeJAjN0Veho5qk9LXtc7I1XzaiQc7J/jlXLUE1U6MxVgTM70U0h+IwjhUovhy1SzYHOBk4Obx5/IgaluQ8uwxvnnUrrmIwzhWYfPnWOioGYyFgfg7qAqTz04gmKZ0bhKbf2hyaD2hoSZqCqRYRNW1KImJyyw9MCUHHix+to7QG8PnLHxC6BcQjxH6B4lN0zO+EzlvGrWWyz/2xmG+L89RTLRTx1SE7hvJkHCNQfJnJj+yatsY3zzF19ICwRLRUDYJLwPxYml/9XO9wylDgq2/+Xn6WokFQCZgf98yvfm1S8pHDPNjVN72WX4nEINZPAZmumV/9nv3cRdAvV9/sVn5TkANhfguYn265X/3+7900nI0AoUIxYgWu/vLX5Fe2SL5tPTDQ/U2MgfaavZVRLDf38UwNkv3SEL8/gZetlGsaZDPI1iLcR6BXgZoG6XVv5I1AswAN0kxIgJEFaJCRq8vemgVokGZCAowsQIOMXF321ixAgzQTEmBkARpk5Oqyt2aBoxpEP5jVcvzTvFMCXE1ANW15JzQ3fRzVIOkbYQEEMgRokAxVYg4jQIMMU0o2kiFAg2SoEnMYARpkmFKykQwBGiRDlZjDCNAgw5SSjWQI0CAZqsQcRoAGGaaUbCRDgAbJUCXmMAI0yDClZCMZAjRIhioxhxGgQYYpJRvJEKBBMlSJOYwADTJMKdlIhsD3jKB3YpY71/Zcap2/Zy2ePUagi5oe1SDTMeas0pHAq+eq49KDP2Jdujwkd7YADXJ2BVj/0gI0yKXLQ3JnC9AgZ1eA9S8tQINcujwkd7YADXJ2BVj/0gI0yKXLQ3JnC9AgZ1eA9c8U+LG1eE2DbAbZWoT7CIwsUHxzbwMcI9fojL2N8E6UKLjJA/UMYlEQxPlfQKY9vxPKPWwUj9QzRhgEgf4Q6PmdsD92EvCJAvYIUgL2Toj7ArLt8Z2w+9tpv6rAPYGU9i0TYUNAxj29E7axn+bbxSOYH1dGUX6MYwXMl7vyOzF5fsWPXaP1f0JSdq12zMO3Y5ZhlU8EyifXz7x8O3Nx1kYAAQQQQAABBBBAAAEEEEAAAQQQQAABBBBAAAEEEEAAAQQQQAABBBBAAAEEEEAAAQQQQAABBBBAAAEEEEAAAQQQQAABBBBAAAEEEEAAAQQQQAABBBBAAAEEEEAAAQQQQAABBBBAAAEEEEAAAQQQQAABBBBAAAEEEEAAAQQQQAABBBBAAAEEEEAAAQQQQAABBBBAAAEEEEAAAQQQQACBd4H/ADZWdzKN0FaoAAAAAElFTkSuQmCC;" vertex="1" parent="1">
          <mxGeometry x="366" y="483" width="44" height="44" as="geometry" />
        </mxCell>
        <mxCell id="qxGBXVRAMQtbO13ppMym-20" value="" style="shape=image;verticalLabelPosition=bottom;labelBackgroundColor=default;verticalAlign=top;aspect=fixed;imageAspect=0;image=data:image/png,iVBORw0KGgoAAAANSUhEUgAAAMgAAADICAYAAACtWK6eAAAAAXNSR0IArs4c6QAAAERlWElmTU0AKgAAAAgAAYdpAAQAAAABAAAAGgAAAAAAA6ABAAMAAAABAAEAAKACAAQAAAABAAAAyKADAAQAAAABAAAAyAAAAACbWz2VAAAT/UlEQVR4Ae1dDZLlKM7c2dh7lfZkpTmZ3SfrL3PnEU35849kAxY2iqDBOJEyE6j3umd65l//GjEcuNcBvbf8fvX/7L8eb4cDVR2YqmYvkPzfBXKMFMOBMw7wcsiZhS3XjAvS0u1RKznQxeUg2XFB0paNvpUD3VwOGjIuSKtjMerQga4uBwmPC0IXRrRwoLvLQVPGBWlxNEaNLi/HuCDj4LZwQFFEWhQaNYYDvTmgIPz7oPHTZcRw4HUOKBQfXQ6+HxfkdUdjCFZYYLkc44KMs/I6BzyXY1yQ1x2Pdwv2Xo5xQd59Xl6l/szlGBfkVUfkvWLPXo5xQd57Zl6j/MrlGBfkNcfknUKvXo5xQd55bl6husTlGBfkFUflfSJLXY5xQd53dh6vuOTlCH9Bxt9JL3ueZSVdPjdn7/NxNh16qGD3HZphYXLjgtgNlQ+U/ddnzE6y8dFw73DN2eJfnzHn2CKEgsQe/wgcB4dGDgjqsE2f9hv9nY089NMEfetQFKyln9pGBHdAwI+Nm1XrIJTOS676aeiqhSJzae55PuoYEdABASduDlu+Yb2NFfxrhSJxbT/o/4ggDgh4cENqb3rL/NRUIxRJz+oQx1rux4gbHRDU5iawnd3wyOsgq3goMp7VLB821vXTBz+6xg4I6tF860b1iFPoKx2KhGe9kIyMNceUrRnDBg4oalg3p3dcaTuveCcLMlZvxwVZGFfrUZHYuilPwJU+WFf8E3i/DKvHpXUsebz+WeGAdTOehKPuUqFIdNYb2SBhzTdtrA8x3fM/SVc4+B3AxfnDIf3T75xSepfmJA0+/dfiefl+8frHo/54Ov/APGd9/C/WzmgjAjkg4MKfOr8bNtZjUzT5NHTVQpGZbUsn50uEIsnvk02wbi+seUtp2ePyincClTTTavwVHOuwCVqUEBDRrGF4KRSrz3okhsrW3PR5xEUHFOuthp/FcaPk09A9OhTqzvokRmes+en7iJMOCNbRQKvZXhxzs8abQiHW61PCi8OotOaonxw5BzRzQDE+MvfMe26IoL0xFKLPeMY1guYJax3uxwiHAwIsTbMabMUpcgraW0Mh3OrVEicnTFvm2HqeTuRutuSvZpVshQSw0ob9jZyK9uZQiP8+acDZP8rlhbDEDNAvC/AGDLmFCQUTmlqiTcgjaCP+cUDRnfFV/ll+6tcz9SKt4RkKEQIWJFPCHOZhvhE/HVA8ev2VnyncT956kfA8RyFCwKKUMRpCUUwS9MbjsxSQ4akXCTsV0F4kBTehhDEUxFwjth1QvLJ6LdtpXG+s9SLheJZChIJFCWMkhJr4JBQUrX6XUmOtFwU3lRJ+NY8iwVVTmGOE3QEF1Oq5Pes+0lovAm7al9LuraLUVUOkHd3HVFIosfpeSrS13t24qZTgq3kUCa6YQSGCNsLvgGKJ1Xt/9vUV1np34nimQoSCxRUjuH7EeQcUS63+n6/yc6W13l246Sfd+54Upa+YIPdRf0xlhRLrHpQSba13B24qJfJqHkWCswZQhKCNuO6AIoV1H65Xa5OB58OqKcdxXYhQsMiJecZhRIRw8joJz15cr1Y/A8+H5zwlbJhzJScFUEgYEeDylFAISYfkqI+umefjSMPae64LEQIWawQtcxpCwfNI0FeL/8REjgnkrDpyHNeFiZyYZ6xhFDyPCL217kVU9TzkVg05juvChIJJTs465roR9RxQpLbuRT0W5zPzkFv55ziuCxMKJjk565jrRtR1QJHeuh91mfiz85Bbuec4rgsTCiY5OeuY60bUd0BRwron9dnYK/CQW3nnOK4LFTk56ziciFCOliWjSGfdl7KVz2fj+bByznFcFyoUbHKClnE4EaEcLU/Gs0flq/sz8nxYztESE+5ceYxPYsKJ8O9fdys8+3S3OJ6PdFY8fchz5RGQsHL3DrywvkJz8v+ov9OeycEz18F14ULBKCdpGXPNiPYOKEpa9oeYu2JCYSvHHMd14ULBKCdpGXPNiHscUJS17BExd8SEolZ+OY7rQkZO0jIOKySku+VJKVJa9omY1sGzYeWW47guZChY5UQtYwmp5D2kFFIt+0RMy5hQzMorx3FdyBCwyolaxhpSybtIcQ8se0VMq5hQyMopx3Fd2FAwy8kejYkfcb8DCgpHe5Xet2A7OfgkXuy5rmn8x1FNgf124AlVJ75HuGSk0/hrZY5T82d++R9r1s98hI4HMWLMIMX/kHbYoHGepmGVXCcmSDF9mseTLawiV81QJN+q3cP8VNOcErnPGFyibqQcAjLcKLbShwopq4Yie2nOrfLR79vC8xXLQ/JvDzgwVsDtG419rWjh1Vct8pXzzsgf+msV9Sua56cF8U8IhQiP7rNYqWzW1EjHWf1b68i7i1Cw3BKxNt+FqB2SXr1rHnjmdqhcfjUhg4dLFCx5dxEKlh7TiO81BMS5MR69V7GKerWitZarXqT15N1NKJgm4pa+G2EZUcGYm2LRVxqT0Sg6vEvPVX/Iu6vwCNaulP1DVtB5NJbE1joMzFuSZ6tctfz4Z6cr/KpOo6UCh5opFclbbf5aHdYvHTxka7Wiz5F3yPhrhxVNtQb/qFKt4AA4cv1uwGNeqSGfuT3vV5YdTvGQySFqHTCvTzebDf9HuUsnFBO8INZGfC/Bg2TVZcUxp2QNw6ZxRZM0ZfqQYgodnsPRi+wrB2npB3NJAOFXNEXgH8BCP4XlYdh7Vn/6W1ZcOUhJP3PILezXi17RFEnHurqgswpe6UBY+qAyftDyalrq5kGUHxnvfyCnJU/rczQt97vpYKDAWo0mNnooCFr1rOG4PlpMILTG1TIn0cT0xsdicsJocHHkl7h6+ymoNvLyakl4CaqpG1oKpslMSx9ZmDi15Ho1qLDpgiYJqslLizroA1vzUFTMD8remNjIscd9750GFTWB1x7vvXcSVJOHFjUsPeBc01gS6NV0hWt73LfeSVO37cU8+7LUFlWTRT2572lvrm1p7t6zReAdGJq2x3vrHddFjAmktjgfzUtEQQZO5G3RTUyzUFQ6Mjy9JzZqKIglntaeayLGBFJWDUucRBRk4ETeSy1bz5MhXzGIOogRGzEUpLbM3JrnmojBzd/ifDQvEQU5OB3py98305oXPRo3I+UwlVBFO+Kevyc+YkwglfP0jCWiICcnj/5mej2b4NTbBK6o4tHATYgYnsOx1CsRBZ3gpFiz1Lb1TL+qh6DCFoHlvFZnc67AkufRc0QdE6Qf8d56L+dsC7mKWrZ0LuenFgrUQYjYaKEgtDRu75n4aMGN3uO8906iiSnAZ0/v8l2Bcusp/r0+vTs7777t46UGozmBj5zkxL9sNJ9cG3mZR5PUFsINWt7KrefaXM7k3+K6Nq9nClRcMyH3Gk/LnFTkdXdqjy/VfbBsRsLcbdyyvmIicbP0y/V3Pk9O7rk+uZN4g9rUl+vdG2stPt6vWHMtIo3y8u/ORwleDjlJ5qlfq07a8a+vswst6wSgvduZv1NLwsaYnN/ROAJ/gT8T2hHXrfdc/5bY8mA5P9UyhP/xaqmVvEFeL3dtwGmvBPle2czxybHnboV3vX/F4oGzxt1frwREx+Ww7tY/uNkIFyPODfNeEHeBygu+KucvlV6QKPLlSPzYj1g4oHj+bWyLpbc/8tBF5y4OjmtauL5GCJIu/eNcpFjyW/MnzUkt4h4StTiczZvMOeqp8Y4QFD3itvee60uHICH9WKurmI8UWzzXuEsN4r1/xbJ68ssKLIgT5OIGn42SvyEXkEiHjT2fe4g79u2HL/xTrF5DAhMntyiXgzZZuXwRPOKPA2/5BPmjuP5IUMJ6INfYlPzkSPnnNBi9zwFeEDEumY24VjBpVchRh5yiXQ4H/XDQ2cFIHFgz9C2fILPZkfNAwdLeLwc1jMgceMsFySRXG35fyFzja9UFOmNpcmBckOTE9f7sIT+77jrjkeHQgZ4vyHyorj3Ae9i9+PaKXl6RF2R+uQel5VsPvRVXgp8Yk8xG3Gtgnk8Q6diV1tyPDv/R+46tLkrds29z0cqfZJ4LUqP+lZyzY/GXA1sKunUJtuZL1b2S59eVxU9c2/MF6WE/lpdh+dxCg7Qo8tQa44LU39l0KVJfv+LPCvLzcTx5HOj9gsxGsQIc211x1+Xw6p29CwLhq3DnBfnlECkO7IDGcODKP8C8W8Edv3f8f5oVM7+NTYCLFAIyVu5TJOKNuKjDH/oYLax7W407P0FmhyviwLaAzo4iAizbiHUH/l6f7mJ2rsWSF8QTXx5wI+zcqE6PZb57JP3hLA7unt8mONL+gVo/yqY/S8KMBEx65l/LSHX4Qv+ihYKQdV+JrRLpE2Q2ZhcjLiqM/NlG/HSg569XP5UUfkoXxJNWPOAG2Bk12KzxbQV2jFNwf4POtEVzGtTqFYmtH2dSi8SFvJODP3XKhVo9LLXuZcJF1OTZ0+r8BRWSWUc9iUcLAaEj3vn7iBpKeapOL4iPGPl+HY2r8xdUOCKR3k/V2ZwrQF6Jo6XXc2XCr7JozzERBXFvco5746mVgD0Sy3etOHnqCMBLnkfPXPOkUIg50py/Jz5iKEjlPPfGxDaJCVX2iOTvpAkjfxHFkpynZSz+MiFXKFhZ9OaYkEJAanJokVYi1EGKAqJGfgAs48harB4rgBatOYZrokbO82jcTIOg0hGZ9H5qxspfSB06etBz5ICc0EvdUUNBLO3LUT+1FnFEKH/fmpunHo3LuVrG6ikQBCvgYdG2xGgQ/ms0yG3Jd+uZ2KYxodoWmeW8NGXmK0ZuS76WZ/WVuRUtqG7RtIa5lfhB8TW+W3P0oGkIqm2RWc5PTZn5i6lDS66NugQtcijI5Zw9YwksjNw8WppL8RIkPnLwsHsMz7EaVBh55Tw946iaktUebbdpmcDWaroAGz08epa6NZA4AZenaNmyden/3rNuJak979kEYqOHgOCe0ZZ3eqNI8vfsyZqeO/lbrSPHNe5bc9a8xXHiJEp89FAQ3DLaM888LUNRzMNvDTu1JHyhlkcrsbcGTV0ze23uiRuwpjPNKbxhqxWCxPQ01bva1+JZOq9Hp5Yu7s0nWOAh7M1/F16duo48mJCPOa+GIAFzHdXzvGc+5u0hFCQ92ppp+mujkmCeBlvjvwDOVvDNOEX970ocZuTN/340n5chn4mvT5+eP49FuhlZuCe9BC+HNf4GUK3gmjheEBK3NGJ7CgFZi64eMdrTRoAr+Xp8FuBDhIBFl8Qd7k1OjR4/7sCqQ3sUqNenKLz/x8NDfgrF3E5GAfXojIoVu+QwSAUTj5/EhwoFG48ACcXeTkYB9eiMhJ3AXdB6DK+PITV6RHCzeg4FeY/eO7H0WtB6DQVxj3/EhwwFK48QCanCR0oB92huiZ3ATdB6D69nofU+SozDaQXWq70WfgIXQXtCKER4fCI+dHBzHiXI6bYC7/XA49celnUF7Umxp3ftXXjtAoZrxPfmuOaJoRA1oe1pv/qO+QXtiaEQ5fGH+C6Cm+YRRvzTQyGQzetN7iPXpiYYPzkU4nLtlvGtfvzlqC7AciM9EeZfC/CQLoCVT47Up5RzGqDPx9n0o4e8EJ7o7vwo1FlufY7xGDKwz3VAIS0/F5Zxl25MTqHEj3i3Awr5lguRY7imyxCwzoVYxtql0kG6lAOWM5Jjuj8vE5zLBVnGUsrtkacrBxRsLecjx0hXClfIUkAuyDpeSTWmHuyAQpv1bCQc1zwiFCqSKGs/PUL5EGFxQAGynoscZ8ndDYYHPhdnGWs36gbRKw5YzsIS87izIXBwKdLy/Dgj4MOIPw5MGFrOQY7RP8ufNaKwXKh1LM+yYaj5OKDorWcg4aanu3fGFJojTzfmZfoUetOh9/TyBp/4U8BjSsK+wpwXHAA9uf9c94oQqEyH3tu/wqAHi9STe891rwqFWu/lIH56lUvPEquQM/bcsadnDaPJ4qgzoPc7oKBw5nK8fq+nYdz9p7cyA72wx1z7+rhySfT17sU2YOxtof0ZRhYyMlCasaeFN+M38p1tWpjLSHfeAcHScTnO+7e5ksaevSBcp2gj7nVAUX7sYcU9kIsGj4tScXMOUuvFveP6EQYHBJgrP4XGJTGYXBDC/ZrQruyZYv0IhwMC7BXDxyVxmH0BqmOfLrhXYOnVn0zjohTYhJUUgrmxNyvG3DFVYiOYQ+8g/8Ca9JE/eK425hlRyAFFnqsbwvXMM+KcA4JlE1qJfWCuEYUdUOQrsTnjovg2RgAvdTHoPfONqOSAIm+pSzIuyv4mCV6XvBjMNaKBA4IaJTduXJSfmzb8/elHt08K5jzcJRtzvjUEwkv/4OHeMO+ImxxQ1C15QVIu5hW0N4RAZI2LwZwjAjgg4FBjg/PLEkBmUQrDs6J29pFMQTMd6ho987P1GgLiNX+Q0HPmZ50RgR1QcKtxQfKcPAiswxY1BMTYyDXnXmvMWiM6cUDBs9ZBWMs7oR5rst0VgsJs5LLGsdacot7rw/O/YItkloLM902E5k/dX5+ez2xXQj6L2X9l48+waTejGv/XZ+xfH71ekLRxisFdFyVx2OrnrReYl513d72aUXhcjLvcr1xXkb/WV42n553gnaCNeIEDCo1PP9Cl9I2L8YILsSVxXJTtHxTjYmydmpX53n8PsiLpx5R+nr5/zL7vYf5IHr/HeN/emxUrkPzp+ftFbXxaYLNH+BwQwBXtqRdlXApsbql4+lesI58EADbG9z9dd7/OH8bj61N3W9cfYQFlReNP4aifMOTGJmgjKjvw9k+QI3sFALYUXxhIemjQz58av9Cnceo/r0ZX04FxQc67K1jKloKXZxmynMDzvDLHC8CY//frn/7zOLq7HPg/txhkix/hmCoAAAAASUVORK5CYII=;" vertex="1" parent="1">
          <mxGeometry x="372.5" y="560.25" width="37.5" height="37.5" as="geometry" />
        </mxCell>
        <mxCell id="qxGBXVRAMQtbO13ppMym-30" value="" style="shape=image;verticalLabelPosition=bottom;labelBackgroundColor=default;verticalAlign=top;aspect=fixed;imageAspect=0;image=data:image/png,iVBORw0KGgoAAAANSUhEUgAAAMgAAADICAYAAACtWK6eAAAAAXNSR0IArs4c6QAAAERlWElmTU0AKgAAAAgAAYdpAAQAAAABAAAAGgAAAAAAA6ABAAMAAAABAAEAAKACAAQAAAABAAAAyKADAAQAAAABAAAAyAAAAACbWz2VAAAJDElEQVR4Ae2cQWLiOBBFw8zcIsdo9m1O1umb5Cbj7OEOs8o1GCkxdIUY4mC7VF96LBrZ2K7SK39LH5R+eOAFAQhAAAIQgAAEIAABCEAAAhCAAAQgAAEIQAACEIAABCAAAQhAAAIQgAAEIAABCEAAAhCAAAQgAAEIQAACEIAABCAAAQhAAAIQgAAEIACBpglsovZ+u912KbfueDz+jJojed1PYLPZvJiz+/1+35vtMM1QAkmieBoE0YUhRCJuBJJofiehPLkFnBAohEDyaJGE8Svl203ImUMqJpBFkroXZkQpLpBh1Mji4AWBM4EklF2Eaddf54wKNMzIUSA6ISMTGGYUxVMsKpAoEIpXgQTGCHQ/fvz4d+wDz33FBJKnVqmjnWdniSVHoMuzjJJZFxMIo0fJsuvELn2fFBFI6aeCzu1BpolA0VGkiEBypyk9BBQIlBKIAhtyjEOgK5VKEYGUnleWgk1cPQJFBJIw9XqoyLhFAqUE0iJr+ixIoIhAhvU2grhIuTUCRQTSGmT6O49AyRW+RQQyLELr52Hj7BYIlJ5tFBFILmzpjrdwc9XQx5KjR+ZXTCB5FEEkNdzC6/Uhwv1R/O9BhhWb3XqYubIigSyO0qNH5lZcIDkJRJIp8DIE+sPhsDPbxZrFpli2xxGGUpsP7bIEoogjUwghEPxI2RsyUvRoD8u/o8B5fX3tHx8f85Svi5ITefgSiOI7bK9DeBCbEH7E0minHVEcmX6IKZa9DaINsTY32usRiPCN1VjvwgkEPzJWprr3pYdiiG+sxiiH8SA2OfyIpVF3e5haPUftZTgPYkHhRyyN+tpRfYclHW6KZZPDj1ga1bXzfy/6FL1XoQUy+JGw89PoxY2cn8rDL6QHsYVNfuQ/fh+xRPTb0X2HJRzag9hE8SOWhm5bwXdYujICyUkjEls6yXaYRYhT6YX2IJedUJm3XubN9juBSIsQp9ZESiD8iDi1rPGOU324hTfpl6XmR8RLIvG31XyHJSrlQWzi+BFLI25bWRyZqtQUy94GqkO27UMLbYUfA2/VQVYg+JFbZY3xWQ0PMTkPYkuPH7E0YrXVp1YnmrIe5NSB/I4fsTTKt2sRRyZZhUByR5JIjvmdV3kC6feOau4rWQ9yeRukp9buch/b/gRqq4O0B7HlZ1GjpVGmPUytnstEXydqNUPhCQ9+5ETC970m32HJVSeQ3DlEYkvs0pZbhDiVSjUexHY4P83sNu11CdTMuxoPYm8B/IilsW67Rt9hiVUpkNxBfkS0ZV6nXavvsLSq9CC2g/gRS2PRdrW+w1Kq0oPYDtY8P7b99G4r/vHTPYyqFwj/M8o9t8Xtc1p66FTrQWyJMe2Wxrx2C77DEqreg9jO4kcsje+3WxNHJtSUQHKHk0hY1JhB3PGqaRHi1O5X70EuQaSn4O5yH9tfE2iVWxMexJYfP2JpTGsPU6vnaUfXdVRzU6xT+fAjJxK331v0HZZIswLJEBCJvRVG2038GDja82Fncx7EwshPR7tN+yMB+Dw8NOdB7C2AH7E0PrZb9h2WRNMCySBY1Ghvh/d2677DEmnag1gQ+JEzjeZ9x5lEajTtQSwI5tvvNFpZhGhrf6uNQAY6LGpMyyr40uKTVpr3IJZIy6Yd32HvhD9tPMgfFudWa34EcZxL/6mBQD4hed+RRNLMosYWFyFeKfun3XiQT0jed6Sn6u7KR1XtbqWf9xYND3KFXAt+ZJhaPV9BwO5EgCnWF7dBrX4E3/FF4YePEcgETjWKBN8xofDpEDzIBE75aTvhMJlD8B3TS4UHmcCqJj+C75hQcHMIAjEwbjVrWNSI77hV4fHP8CDjXK7uFfYjLEK8WtXrH+BBrrMZ/UTVj7AIcbScX+5EIF8i+niA4qJGVVF/JF9mCw9yB3cl047vuKPA5hRGEAPjm83+m8dzuCABBCJYNFL2I4BA/FgTSZAAAhEsGin7EUAgfqyJJEgAgQgWjZT9CCAQP9ZEEiSAQASLRsp+BBCIH2siCRJAIIJFI2U/AgjEjzWRBAkgEMGikbIfAQTix5pIggQQiGDRSNmPAALxY00kQQIIRLBopOxHAIH4sSaSIAEEIlg0UvYjgED8WBNJkAACESwaKfsRQCB+rIkkSACBCBaNlP0IIBA/1kQSJIBABItGyn4EEIgfayIJEkAggkUjZT8CCMSPNZEECSAQwaKRsh8BBOLHmkiCBBCIYNFI2Y8AAvFjTSRBAghEsGik7EcAgfixJpIgAQQiWDRS9iOAQPxYE0mQAAIRLBop+xFAIH6siSRIAIEIFo2U/QggED/WRBIkgEAEi0bKfgQQiB9rIgkSQCCCRSNlPwIIxI81kQQJIBDBopGyHwEE4seaSIIEEIhg0UjZjwAC8WNNJEECCESwaKTsRwCB+LEmkiABBCJYNFL2I4BA/FgTSZAAAhEsGin7EUAgfqyJJEgAgQgWjZT9CCAQP9ZEEiSAQO4s2n6/7+88ldOECCAQoWKRqj8BBDKPeT/vdM6OTgCBzKjQZrN5mXE6pwoQQCDzitTPO52zoxNAIDMqNBj1fsYlODU4AQQys0BpmvV75iU4PTABBDKzOHkUQSQzIQY+HYEsUJwkkqd0mX6BS3GJYAQQyEIFORwOu4UuxWUCEUAgCxYjTbUQyYI8I1wKgSxYhexH0kiSdIJxXxBr0UshkBXwZ0+CSFYAW+CSCGQl6FkkjCYrwXW8LAJZGTZCWRnwypdHICsDPl0eoZxIaL0jEOd6nfwJHsUZ/J3h/rnzPE6bQSCLJJ++3W4fjsfjz9Ts8vZKr36l6zZx2U0TvQzeySSUpySUX2ukmb8oWOO6rVyTKVaASq/oT/oA3ZNOAYEEKt/SQkk+5yVQ9yRTYfgNXLY5U6/8JcDJ6wTuYvjUEEj4Er2Z+W95FMSxXFERyHIsV7/SlBEliWOXRo5+9WQaCYBABAudhZLTHr4ifuvBMGr0bxv8AwEIQAACEIAABCAAAQhAAAIQgAAEIAABCEAAAhCAAAQgAAEIQAACEIAABCAAAQhAAAIQgAAEIAABCEAAAhCAAAQgAAEIQAACEIAABCAAAQhAAAIQgAAEIACBkgT+B+0H6QCC7xwQAAAAAElFTkSuQmCC;" vertex="1" parent="1">
          <mxGeometry x="473.38" y="208.25" width="53.25" height="53.25" as="geometry" />
        </mxCell>
        <mxCell id="qxGBXVRAMQtbO13ppMym-31" value="&lt;font style=&quot;font-size: 16px;&quot;&gt;结果融合&lt;/font&gt;" style="text;html=1;align=center;verticalAlign=middle;whiteSpace=wrap;rounded=0;" vertex="1" parent="1">
          <mxGeometry x="466.5" y="255.75" width="67" height="30" as="geometry" />
        </mxCell>
        <mxCell id="qxGBXVRAMQtbO13ppMym-32" value="" style="shape=image;verticalLabelPosition=bottom;labelBackgroundColor=default;verticalAlign=top;aspect=fixed;imageAspect=0;image=data:image/png,iVBORw0KGgoAAAANSUhEUgAAAMgAAADICAYAAACtWK6eAAAAAXNSR0IArs4c6QAAAERlWElmTU0AKgAAAAgAAYdpAAQAAAABAAAAGgAAAAAAA6ABAAMAAAABAAEAAKACAAQAAAABAAAAyKADAAQAAAABAAAAyAAAAACbWz2VAAAG9UlEQVR4Ae3d7W7bRhBG4VVQOLmrulfm5Mrq3pWTH1FptIBjWx9DctfRzjwGgljk7Ehz3j0woTBWa74QQAABBBBAAAEEEEAAAQQQQAABBBBAAAEEEEAAAQQQQAABBBBAAAEEEEAAAQT2EjjsbdB7/V379LV3T/1eCPxoP/F9wXH1uxsU5HC8+qoV7CBw+EaSOL5P8VKVOQgcH/yUjidJkDirRJUkiYZJkCipdHUkiURKkAiltDUkuRYtQa4RSn+eJJcinupdrOXFPl4axrn3BJa3BO/fHz11xLtbp6jc3LG7djie+/MlHPbNjfVbX9Dndvj7HNPXx/0b1NugXGK9JZLw8fd2/Cv209fl1tv4CfKWSNLHJNkWLEG2cZtyFUnWx0aQ9cymXkGSdfERZB2vFNUkicdIkDirVJUkicVJkBinlFUkuR4rQa4zSl1BksvxEuQynxJnSXI+ZoKcZ1PqDElOx02Q01xKHiXJ+9gJ8p5J6SMkeR0/QV7z8GghQJKXbUCQFxa++4UASf6DQZBfNoVvXxMgSWsEeb0nPHpDoLokBHmzITx8T6CyJAR5vx8cOUGgqiQEObEZHDpNoKIkBDm9Fxw9Q6CaJAQ5sxEcPk+gkiQEOb8PnLlAoIokBLmwCZy6TKCCJAS5vAecvUIguyQEubIBnL5OILMkBLmev4oAgaySECQQvpIYgYySECSWvaoggWySECQYvLI4gUySECSeu8oVBLJIQpAVoStdRyCDJARZl7nqlQRml4QgKwNXvp7AzJIQZH3eVmwgMKskBNkQtiXbCMwoCUG2ZW3VRgJrJLmFz6QkyMagLdtOIC7J9ufotZIgvUjqs4rALJIQZFWsinsSeJakZ78RvQgygqqeaQgQJE2UBhlBgCAjqOqZhgBB0kRpkBEECDKCqp5pCBAkTZQGGUGAICOo6pmGAEHSRGmQEQQIMoKqnmkIECRNlAYZQeCPEU1n6/k77hp9au1xNk4VXy9BltSP7fBwbO3+IzfAl+U+JJJ8JPFtz+USaxs3q4oQIEiRoI25jQBBtnGzqggBghQJ2pjbCBBkGzerihAgSJGgjbmNAEG2cbOqCAGCFAnamNsIEGQbN6uKECBIkaCNuY0AQbZxs6oIAYIUCdqY2wgQZBs3q4oQcDfvEvRyN+8/y1/Pfz7s66kdHz/syTzRZgIEWdD9aD+/biZoYWoCLrFSx2u4vQQIspeg9akJECR1vIbbS4Agewlan5oAQVLHa7i9BAiyl6D1qQkQJHW8httLgCB7CVqfmgBBUsdruL0ECLKXoPWpCRAkdbyG20uAIHsJWp+aAEFSx2u4vQQIspeg9akJECR1vIbbS4Agewlan5oAQVLHa7i9BAiyl6D1qQkQJHW8httLgCB7CVqfmoBf2rDEe9c+fT2045+pk9453PflMxV3tphyOUGW2J7l+OgP8ZxytxR80S6xCoZu5DgBgsRZqSxIgCAFQzdynABB4qxUFiRAkIKhGzlOgCBxVioLEiBIwdCNHCdAkDgrlQUJEKRg6EaOEyBInJXKggQIUjB0I8cJECTOSmVBAgQpGLqR4wTczbuwqnord3yb1K30E6Ru9iYPECBIAJKSugQIUjd7kwcIECQASUldAgSpm73JAwQIEoCkpC4BgtTN3uQBAgQJQFJSlwBB6mZv8gABggQgKalLgCB1szd5gABBApCU1CVAkLrZmzxAgCABSErqEiBI3exNHiBAkAAkJXUJEKRu9iYPECBIAJKSugQIUjd7kwcIECQASUldAn5pw5L9l9bu626B2ORPrT3GKnNVEWTJ89gODz6j8NrGPh6uVWQ87xIrY6pm6kaAIN1QapSRAEEypmqmbgQI0g2lRhkJECRjqmbqRoAg3VBqlJEAQTKmaqZuBAjSDaVGGQkQJGOqZupGgCDdUGqUkQBBMqZqpm4ECNINpUYZCRAkY6pm6kbA3bwLykM7fltuVf3WjapGaQgQZImy6v91SLOLBw7iEmsgXK3nJ0CQ+TM0wUACBBkIV+v5CRBk/gxNMJAAQQbC1Xp+AgSZP0MTDCRAkIFwtZ6fAEHmz9AEAwkQZCBcrecnQJD5MzTBQAIEGQhX6/kJEGT+DE0wkABBBsLVen4CBJk/QxMMJECQgXC1np8AQebP0AQDCRBkIFyt5ydAkPkzNMFAAgQZCFfr+QkQZP4MTTCQwFS/tOH5swQ/t/YwkIfWH0xg+WzIm/6aTJB2f9M0vbh0BFxipYvUQD0JEKQnTb3SESBIukgN1JMAQXrS1CsdAYKki9RAPQnc4LtYB79EumfCE/d6asfHiV++l44AAggggAACCCCAAAIIIIAAAggggAACCCCAAAIIIIAAAggggAACCCCAAAIIIPA/gX8BtWMPpGfOulYAAAAASUVORK5CYII=;" vertex="1" parent="1">
          <mxGeometry x="657.5" y="219.25" width="31" height="31" as="geometry" />
        </mxCell>
        <mxCell id="qxGBXVRAMQtbO13ppMym-33" value="" style="shape=image;verticalLabelPosition=bottom;labelBackgroundColor=default;verticalAlign=top;aspect=fixed;imageAspect=0;image=data:image/png,iVBORw0KGgoAAAANSUhEUgAAAMgAAADICAYAAACtWK6eAAAAAXNSR0IArs4c6QAAAERlWElmTU0AKgAAAAgAAYdpAAQAAAABAAAAGgAAAAAAA6ABAAMAAAABAAEAAKACAAQAAAABAAAAyKADAAQAAAABAAAAyAAAAACbWz2VAAAG9UlEQVR4Ae3d7W7bRhBG4VVQOLmrulfm5Mrq3pWTH1FptIBjWx9DctfRzjwGgljk7Ehz3j0woTBWa74QQAABBBBAAAEEEEAAAQQQQAABBBBAAAEEEEAAAQQQQAABBBBAAAEEEEAAAQT2EjjsbdB7/V379LV3T/1eCPxoP/F9wXH1uxsU5HC8+qoV7CBw+EaSOL5P8VKVOQgcH/yUjidJkDirRJUkiYZJkCipdHUkiURKkAiltDUkuRYtQa4RSn+eJJcinupdrOXFPl4axrn3BJa3BO/fHz11xLtbp6jc3LG7djie+/MlHPbNjfVbX9Dndvj7HNPXx/0b1NugXGK9JZLw8fd2/Cv209fl1tv4CfKWSNLHJNkWLEG2cZtyFUnWx0aQ9cymXkGSdfERZB2vFNUkicdIkDirVJUkicVJkBinlFUkuR4rQa4zSl1BksvxEuQynxJnSXI+ZoKcZ1PqDElOx02Q01xKHiXJ+9gJ8p5J6SMkeR0/QV7z8GghQJKXbUCQFxa++4UASf6DQZBfNoVvXxMgSWsEeb0nPHpDoLokBHmzITx8T6CyJAR5vx8cOUGgqiQEObEZHDpNoKIkBDm9Fxw9Q6CaJAQ5sxEcPk+gkiQEOb8PnLlAoIokBLmwCZy6TKCCJAS5vAecvUIguyQEubIBnL5OILMkBLmev4oAgaySECQQvpIYgYySECSWvaoggWySECQYvLI4gUySECSeu8oVBLJIQpAVoStdRyCDJARZl7nqlQRml4QgKwNXvp7AzJIQZH3eVmwgMKskBNkQtiXbCMwoCUG2ZW3VRgJrJLmFz6QkyMagLdtOIC7J9ufotZIgvUjqs4rALJIQZFWsinsSeJakZ78RvQgygqqeaQgQJE2UBhlBgCAjqOqZhgBB0kRpkBEECDKCqp5pCBAkTZQGGUGAICOo6pmGAEHSRGmQEQQIMoKqnmkIECRNlAYZQeCPEU1n6/k77hp9au1xNk4VXy9BltSP7fBwbO3+IzfAl+U+JJJ8JPFtz+USaxs3q4oQIEiRoI25jQBBtnGzqggBghQJ2pjbCBBkGzerihAgSJGgjbmNAEG2cbOqCAGCFAnamNsIEGQbN6uKECBIkaCNuY0AQbZxs6oIAYIUCdqY2wgQZBs3q4oQcDfvEvRyN+8/y1/Pfz7s66kdHz/syTzRZgIEWdD9aD+/biZoYWoCLrFSx2u4vQQIspeg9akJECR1vIbbS4Agewlan5oAQVLHa7i9BAiyl6D1qQkQJHW8httLgCB7CVqfmgBBUsdruL0ECLKXoPWpCRAkdbyG20uAIHsJWp+aAEFSx2u4vQQIspeg9akJECR1vIbbS4Agewlan5oAQVLHa7i9BAiyl6D1qQkQJHW8httLgCB7CVqfmoBf2rDEe9c+fT2045+pk9453PflMxV3tphyOUGW2J7l+OgP8ZxytxR80S6xCoZu5DgBgsRZqSxIgCAFQzdynABB4qxUFiRAkIKhGzlOgCBxVioLEiBIwdCNHCdAkDgrlQUJEKRg6EaOEyBInJXKggQIUjB0I8cJECTOSmVBAgQpGLqR4wTczbuwqnord3yb1K30E6Ru9iYPECBIAJKSugQIUjd7kwcIECQASUldAgSpm73JAwQIEoCkpC4BgtTN3uQBAgQJQFJSlwBB6mZv8gABggQgKalLgCB1szd5gABBApCU1CVAkLrZmzxAgCABSErqEiBI3exNHiBAkAAkJXUJEKRu9iYPECBIAJKSugQIUjd7kwcIECQASUldAn5pw5L9l9bu626B2ORPrT3GKnNVEWTJ89gODz6j8NrGPh6uVWQ87xIrY6pm6kaAIN1QapSRAEEypmqmbgQI0g2lRhkJECRjqmbqRoAg3VBqlJEAQTKmaqZuBAjSDaVGGQkQJGOqZupGgCDdUGqUkQBBMqZqpm4ECNINpUYZCRAkY6pm6kbA3bwLykM7fltuVf3WjapGaQgQZImy6v91SLOLBw7iEmsgXK3nJ0CQ+TM0wUACBBkIV+v5CRBk/gxNMJAAQQbC1Xp+AgSZP0MTDCRAkIFwtZ6fAEHmz9AEAwkQZCBcrecnQJD5MzTBQAIEGQhX6/kJEGT+DE0wkABBBsLVen4CBJk/QxMMJECQgXC1np8AQebP0AQDCRBkIFyt5ydAkPkzNMFAAgQZCFfr+QkQZP4MTTCQwFS/tOH5swQ/t/YwkIfWH0xg+WzIm/6aTJB2f9M0vbh0BFxipYvUQD0JEKQnTb3SESBIukgN1JMAQXrS1CsdAYKki9RAPQnc4LtYB79EumfCE/d6asfHiV++l44AAggggAACCCCAAAIIIIAAAggggAACCCCAAAIIIIAAAggggAACCCCAAAIIIPA/gX8BtWMPpGfOulYAAAAASUVORK5CYII=;" vertex="1" parent="1">
          <mxGeometry x="592.5" y="219.5" width="31" height="31" as="geometry" />
        </mxCell>
        <mxCell id="qxGBXVRAMQtbO13ppMym-34" value="" style="shape=image;verticalLabelPosition=bottom;labelBackgroundColor=default;verticalAlign=top;aspect=fixed;imageAspect=0;image=data:image/png,iVBORw0KGgoAAAANSUhEUgAAAMgAAADICAYAAACtWK6eAAAAAXNSR0IArs4c6QAAAERlWElmTU0AKgAAAAgAAYdpAAQAAAABAAAAGgAAAAAAA6ABAAMAAAABAAEAAKACAAQAAAABAAAAyKADAAQAAAABAAAAyAAAAACbWz2VAAAG9UlEQVR4Ae3d7W7bRhBG4VVQOLmrulfm5Mrq3pWTH1FptIBjWx9DctfRzjwGgljk7Ehz3j0woTBWa74QQAABBBBAAAEEEEAAAQQQQAABBBBAAAEEEEAAAQQQQAABBBBAAAEEEEAAAQT2EjjsbdB7/V379LV3T/1eCPxoP/F9wXH1uxsU5HC8+qoV7CBw+EaSOL5P8VKVOQgcH/yUjidJkDirRJUkiYZJkCipdHUkiURKkAiltDUkuRYtQa4RSn+eJJcinupdrOXFPl4axrn3BJa3BO/fHz11xLtbp6jc3LG7djie+/MlHPbNjfVbX9Dndvj7HNPXx/0b1NugXGK9JZLw8fd2/Cv209fl1tv4CfKWSNLHJNkWLEG2cZtyFUnWx0aQ9cymXkGSdfERZB2vFNUkicdIkDirVJUkicVJkBinlFUkuR4rQa4zSl1BksvxEuQynxJnSXI+ZoKcZ1PqDElOx02Q01xKHiXJ+9gJ8p5J6SMkeR0/QV7z8GghQJKXbUCQFxa++4UASf6DQZBfNoVvXxMgSWsEeb0nPHpDoLokBHmzITx8T6CyJAR5vx8cOUGgqiQEObEZHDpNoKIkBDm9Fxw9Q6CaJAQ5sxEcPk+gkiQEOb8PnLlAoIokBLmwCZy6TKCCJAS5vAecvUIguyQEubIBnL5OILMkBLmev4oAgaySECQQvpIYgYySECSWvaoggWySECQYvLI4gUySECSeu8oVBLJIQpAVoStdRyCDJARZl7nqlQRml4QgKwNXvp7AzJIQZH3eVmwgMKskBNkQtiXbCMwoCUG2ZW3VRgJrJLmFz6QkyMagLdtOIC7J9ufotZIgvUjqs4rALJIQZFWsinsSeJakZ78RvQgygqqeaQgQJE2UBhlBgCAjqOqZhgBB0kRpkBEECDKCqp5pCBAkTZQGGUGAICOo6pmGAEHSRGmQEQQIMoKqnmkIECRNlAYZQeCPEU1n6/k77hp9au1xNk4VXy9BltSP7fBwbO3+IzfAl+U+JJJ8JPFtz+USaxs3q4oQIEiRoI25jQBBtnGzqggBghQJ2pjbCBBkGzerihAgSJGgjbmNAEG2cbOqCAGCFAnamNsIEGQbN6uKECBIkaCNuY0AQbZxs6oIAYIUCdqY2wgQZBs3q4oQcDfvEvRyN+8/y1/Pfz7s66kdHz/syTzRZgIEWdD9aD+/biZoYWoCLrFSx2u4vQQIspeg9akJECR1vIbbS4Agewlan5oAQVLHa7i9BAiyl6D1qQkQJHW8httLgCB7CVqfmgBBUsdruL0ECLKXoPWpCRAkdbyG20uAIHsJWp+aAEFSx2u4vQQIspeg9akJECR1vIbbS4Agewlan5oAQVLHa7i9BAiyl6D1qQkQJHW8httLgCB7CVqfmoBf2rDEe9c+fT2045+pk9453PflMxV3tphyOUGW2J7l+OgP8ZxytxR80S6xCoZu5DgBgsRZqSxIgCAFQzdynABB4qxUFiRAkIKhGzlOgCBxVioLEiBIwdCNHCdAkDgrlQUJEKRg6EaOEyBInJXKggQIUjB0I8cJECTOSmVBAgQpGLqR4wTczbuwqnord3yb1K30E6Ru9iYPECBIAJKSugQIUjd7kwcIECQASUldAgSpm73JAwQIEoCkpC4BgtTN3uQBAgQJQFJSlwBB6mZv8gABggQgKalLgCB1szd5gABBApCU1CVAkLrZmzxAgCABSErqEiBI3exNHiBAkAAkJXUJEKRu9iYPECBIAJKSugQIUjd7kwcIECQASUldAn5pw5L9l9bu626B2ORPrT3GKnNVEWTJ89gODz6j8NrGPh6uVWQ87xIrY6pm6kaAIN1QapSRAEEypmqmbgQI0g2lRhkJECRjqmbqRoAg3VBqlJEAQTKmaqZuBAjSDaVGGQkQJGOqZupGgCDdUGqUkQBBMqZqpm4ECNINpUYZCRAkY6pm6kbA3bwLykM7fltuVf3WjapGaQgQZImy6v91SLOLBw7iEmsgXK3nJ0CQ+TM0wUACBBkIV+v5CRBk/gxNMJAAQQbC1Xp+AgSZP0MTDCRAkIFwtZ6fAEHmz9AEAwkQZCBcrecnQJD5MzTBQAIEGQhX6/kJEGT+DE0wkABBBsLVen4CBJk/QxMMJECQgXC1np8AQebP0AQDCRBkIFyt5ydAkPkzNMFAAgQZCFfr+QkQZP4MTTCQwFS/tOH5swQ/t/YwkIfWH0xg+WzIm/6aTJB2f9M0vbh0BFxipYvUQD0JEKQnTb3SESBIukgN1JMAQXrS1CsdAYKki9RAPQnc4LtYB79EumfCE/d6asfHiV++l44AAggggAACCCCAAAIIIIAAAggggAACCCCAAAIIIIAAAggggAACCCCAAAIIIPA/gX8BtWMPpGfOulYAAAAASUVORK5CYII=;" vertex="1" parent="1">
          <mxGeometry x="623.5" y="219.25" width="31" height="31" as="geometry" />
        </mxCell>
        <mxCell id="qxGBXVRAMQtbO13ppMym-35" value="&lt;span style=&quot;font-size: 16px;&quot;&gt;papers候选文档块&lt;/span&gt;" style="text;html=1;align=center;verticalAlign=middle;whiteSpace=wrap;rounded=0;" vertex="1" parent="1">
          <mxGeometry x="579.5" y="250.25" width="131" height="29" as="geometry" />
        </mxCell>
        <mxCell id="qxGBXVRAMQtbO13ppMym-36" value="" style="shape=image;verticalLabelPosition=bottom;labelBackgroundColor=default;verticalAlign=top;aspect=fixed;imageAspect=0;image=data:image/png,iVBORw0KGgoAAAANSUhEUgAAAMgAAADICAYAAACtWK6eAAAAAXNSR0IArs4c6QAAAERlWElmTU0AKgAAAAgAAYdpAAQAAAABAAAAGgAAAAAAA6ABAAMAAAABAAEAAKACAAQAAAABAAAAyKADAAQAAAABAAAAyAAAAACbWz2VAAAJU0lEQVR4Ae2djXnjNgyG79oO0k4SZJROcrzJwmySTVLgIvUYxqZFWrJI4uXz0CLFP+AFvthOnOTbNwoEIAABCEAAAhCAAAQgAAEIQAACEIAABCAAAQhAAAIQgAAEIAABCEAAAhCAAAQgAAEIQAACEIAABCAAAQhAAAIQgAAEIAABCEAAAhCAAAQgAAEIQAACEIAABCAAgT0JfN9zswP3Et37R7K/9T2XqM4/ewaA7x8Egl7eqRcZvHwg4tEjAVGnLQEQR5kBInGoDhMHwtjOAJEcKJIe34OYOCh1BKJO5z1JHbNNs//YNOtxk8LjjprqJFFveCaZKqRfnQl6i5dW9zFAJF/z6q47vT2D3OUMi7+JMkAkOyZCT+9B7NmDsg+BqNvwnmQHlr08g4QdfGGL3wREmzyT/ObR3OpFIM0OsPAqAdERRHIVz7aBv7ZNG2JWHMLKNiOlbdn/70l4udUIsJdlQQ2x9yAt1dbOXoI62MJmXfMyO6DZ/WtJAAu6zA4m8S9oe034lisiSWCO1mwJvozm5A72tnBKxYRIdgjCGVvUBt7mey1BHU+TvraNSCoyh+9iVcDqZGpQO+IdtoiuRSQbAY4qkLDRv1mnvd7pmOh6RLIB4qgC2eAaU24QEB1HJDcgIZAbgCYfFvUPkRSCjEAKcJwMifqJSK4EG4FcAePstqi/iORC0BHIBShOb4n6jUiy4COQDIjzrqj/iCRJAgSSwKD5i4DoIyJZkgGBLCC4fCIg2kMkCgGBfMoLOgkB0bZ7kSCQJCNofiEgese1SBDIl5yY8ka8wyvRtW5FgkDuyJyBlv5UW622FtGFLkWCQFpTZrx1QU1GJJVxQyCVwAafHtR+RFIRRARSAWuSqUH9QCQbg4lANoKabFpQfxDJhqAikA2QJp0S1C9EciO4COQGoMmHg/qHSApBRiAFOE6GgvqJSK4EG4FcAePsdlB/EcmFoCOQC1Cc3grqNyLJgo9AMiDOu0H9RyRJEiCQBAbNXwSCPiKSJRkQyAKCyycCQXuIRCEgkE95QSchELTtXiQIJMkIml8IBL3jWiQI5EtOcCMjELTvViQz/YepLK50EwJn/y6HqC1mw3Ni0xBNnkGGCNMURop6cbZQq0EikGpkLLiDgOjaoUSCQO6INkubCIiuGkYkCKQpxiy6k4Do+iFEgkDujDTLmwmIruxeJAikOb6nLoynnr7f4aJbdS0SBLJfsB+5U3zkYQefJbp/tyJBIAdH/8Dt44F7P3pr0QO7FAkCeXQq7HfePT/d3s+K/XYS3ao7kSCQ/QL86J2iHmg/mbbrLEXUka5E4vWjJhaIs0rc8WDby2rQauXp49LFozRaYetMJMN9LKXR303Lgs56r6ibNr0wKVScUWNPy1yzZeYS1LkWLusamRlOrW9BF6xgtlxr97f5L5VnbLHj3jlm08wlqHOtjGRmMLW+BV1QA/Lo/WtsuXeu+T5zCepcCyOZGUqtb0EX1ECs3b9m7zPmSq1Dg81/UXtruXbBxMN3sboAPVhC723usN+SRiB7p0LbftK2bJhVUS21OlzxIJA4XFQwuBsCCKSPUMQ+zDjUitdDdz9ocw8CMXQ9vwY226IZSemPgBeBBEUf+8P/6afgHZqHSV4EYpF+1trTM4nZYjZROibg7bNYQWNhVZaql4eXqCdapQxAwJtA1pBEbVilQKBIwNNLrCIIBiFwiQACuUSFexBYCCAQUgECBQIIpACHIQggEHIAAgUCCKQAhyEIIBByAAIFAgikAIchCCAQcgACBQIIpACHIQh4/KiJaNh/EPoqAq/L7FC1ism7ETDwNb/U33Kw6KKWPx5QY5eHuaEFvq6xdTV8ROefXjy9xDJxyOnExzfghyeOXgQSxs/LrjywLzYuiheB2Fc9yr4EZN/t+tzNg0BcBPKE9HLB1YNATsgdjpyFgAeBxFmC1ZkfLrh6EIjllYtgmqMPLPGBZ512lBeB9PTXTE4L9o4Hu+HpRSBRk8NNUHcUwqWtjGO4NDDjPU8fNbGgrtVi+WQPlM0EXnVmXOrmRaNP9CSQNVZhbXCFwC0CXl5i3eLAOAQuEkAgF7FwEwIfBBAImQCBAgEEUoDDEAQQCDkAgQIBBFKAwxAEEAg5AIECAQRSgMMQBBAIOQCBAgEEUoDDEAQ8ftTEoi5L6Nfr0uVyhUDU+1bdFW8CCRphfj+9Ps1XZq4+yWuYPL3ECurvGmjznVJPwPi91y8bd4UXgQQNEeLYL09f9tuq7528CARx7JuHottZnb54EIhMH0UcPIyAB4EcBs/5xuLBfwTiIcr42EzAg0BiMx0Wlgi44OpBIBZk/qJJKdXrx4xnrF823govAgkaGkSyT35G3Sbss1X/u3gRiEUiaEUkRqK9GL/n9uXjrfT4UZOwhEnGC9epFsdTTz/pcG8CSTG7DHgKgPZtAp5eYt2mwQwIZAQQSAaELgRSAggkpUEbAhkBBJIBoQuBlAACSWnQhkBGAIFkQOhCICWAQFIatCGQEUAgGRC6EEgJIJCUBm0IZAQQSAaELgRSAggkpUEbAhkBBJIBoQuBlAACSWnQhkBGAIFkQOhCICWAQFIatCGQEUAgGRC6EEgJIJCUBm0IZAQQSAaELgRSAggkpUEbAhkBBJIBoQuBlAACSWnQhkBGAIFkQOhCICUwqkAkdYI2BI4igECOIsu+OYEh/4nRqAJ5yunT75pA6Nq6gnGjCkTUp1Dwi6G+CAz57GEIRxWI2W7QgzUo3RIQteylW+s2GDb63+Y1kVjlr7ZvCPYDpzwtZ8kDzzzkqNEFskIxkVDmIhB7cKeXl1hdwOghINjQF4FeBNIXFaw5m0A824D1/F4EYkCsUiBgBF57wfBnL4aoHf9olY7swZTzCHTzb956eQaxUITz4sHJHRHgO5KFYIiOvVPdMngp5MYpQz29xDIAb1q/axWtFH8E/lWX33pyuzeBGJuoFZEYCT8lqqsmDrt2VXoUiAGKWk0kVv7+9cjDrASiOvas9U1rd2VNwu4MSwwKS5uflidQBm/Gxf6fel3by62+LiMIJCUmaYf2sATisJZjOAQgAAEIQAACEIAABCAAAQhAAAIQgAAEIAABCEAAAhCAAAQgAAEIQAACEIAABCAAAQhAAAIQgAAEIAABCEAAAhCAAAQgAAEIQAACEIAABCAAAQhAAAIQgMBtAv8B0Z0rxl39CMUAAAAASUVORK5CYII=;" vertex="1" parent="1">
          <mxGeometry x="606" y="494" width="31" height="31" as="geometry" />
        </mxCell>
        <mxCell id="qxGBXVRAMQtbO13ppMym-37" value="" style="shape=image;verticalLabelPosition=bottom;labelBackgroundColor=default;verticalAlign=top;aspect=fixed;imageAspect=0;image=data:image/png,iVBORw0KGgoAAAANSUhEUgAAAMgAAADICAYAAACtWK6eAAAAAXNSR0IArs4c6QAAAERlWElmTU0AKgAAAAgAAYdpAAQAAAABAAAAGgAAAAAAA6ABAAMAAAABAAEAAKACAAQAAAABAAAAyKADAAQAAAABAAAAyAAAAACbWz2VAAAJU0lEQVR4Ae2djXnjNgyG79oO0k4SZJROcrzJwmySTVLgIvUYxqZFWrJI4uXz0CLFP+AFvthOnOTbNwoEIAABCEAAAhCAAAQgAAEIQAACEIAABCAAAQhAAAIQgAAEIAABCEAAAhCAAAQgAAEIQAACEIAABCAAAQhAAAIQgAAEIAABCEAAAhCAAAQgAAEIQAACEIAABCAAgT0JfN9zswP3Et37R7K/9T2XqM4/ewaA7x8Egl7eqRcZvHwg4tEjAVGnLQEQR5kBInGoDhMHwtjOAJEcKJIe34OYOCh1BKJO5z1JHbNNs//YNOtxk8LjjprqJFFveCaZKqRfnQl6i5dW9zFAJF/z6q47vT2D3OUMi7+JMkAkOyZCT+9B7NmDsg+BqNvwnmQHlr08g4QdfGGL3wREmzyT/ObR3OpFIM0OsPAqAdERRHIVz7aBv7ZNG2JWHMLKNiOlbdn/70l4udUIsJdlQQ2x9yAt1dbOXoI62MJmXfMyO6DZ/WtJAAu6zA4m8S9oe034lisiSWCO1mwJvozm5A72tnBKxYRIdgjCGVvUBt7mey1BHU+TvraNSCoyh+9iVcDqZGpQO+IdtoiuRSQbAY4qkLDRv1mnvd7pmOh6RLIB4qgC2eAaU24QEB1HJDcgIZAbgCYfFvUPkRSCjEAKcJwMifqJSK4EG4FcAePstqi/iORC0BHIBShOb4n6jUiy4COQDIjzrqj/iCRJAgSSwKD5i4DoIyJZkgGBLCC4fCIg2kMkCgGBfMoLOgkB0bZ7kSCQJCNofiEgese1SBDIl5yY8ka8wyvRtW5FgkDuyJyBlv5UW622FtGFLkWCQFpTZrx1QU1GJJVxQyCVwAafHtR+RFIRRARSAWuSqUH9QCQbg4lANoKabFpQfxDJhqAikA2QJp0S1C9EciO4COQGoMmHg/qHSApBRiAFOE6GgvqJSK4EG4FcAePsdlB/EcmFoCOQC1Cc3grqNyLJgo9AMiDOu0H9RyRJEiCQBAbNXwSCPiKSJRkQyAKCyycCQXuIRCEgkE95QSchELTtXiQIJMkIml8IBL3jWiQI5EtOcCMjELTvViQz/YepLK50EwJn/y6HqC1mw3Ni0xBNnkGGCNMURop6cbZQq0EikGpkLLiDgOjaoUSCQO6INkubCIiuGkYkCKQpxiy6k4Do+iFEgkDujDTLmwmIruxeJAikOb6nLoynnr7f4aJbdS0SBLJfsB+5U3zkYQefJbp/tyJBIAdH/8Dt44F7P3pr0QO7FAkCeXQq7HfePT/d3s+K/XYS3ao7kSCQ/QL86J2iHmg/mbbrLEXUka5E4vWjJhaIs0rc8WDby2rQauXp49LFozRaYetMJMN9LKXR303Lgs56r6ibNr0wKVScUWNPy1yzZeYS1LkWLusamRlOrW9BF6xgtlxr97f5L5VnbLHj3jlm08wlqHOtjGRmMLW+BV1QA/Lo/WtsuXeu+T5zCepcCyOZGUqtb0EX1ECs3b9m7zPmSq1Dg81/UXtruXbBxMN3sboAPVhC723usN+SRiB7p0LbftK2bJhVUS21OlzxIJA4XFQwuBsCCKSPUMQ+zDjUitdDdz9ocw8CMXQ9vwY226IZSemPgBeBBEUf+8P/6afgHZqHSV4EYpF+1trTM4nZYjZROibg7bNYQWNhVZaql4eXqCdapQxAwJtA1pBEbVilQKBIwNNLrCIIBiFwiQACuUSFexBYCCAQUgECBQIIpACHIQggEHIAAgUCCKQAhyEIIBByAAIFAgikAIchCCAQcgACBQIIpACHIQh4/KiJaNh/EPoqAq/L7FC1ism7ETDwNb/U33Kw6KKWPx5QY5eHuaEFvq6xdTV8ROefXjy9xDJxyOnExzfghyeOXgQSxs/LrjywLzYuiheB2Fc9yr4EZN/t+tzNg0BcBPKE9HLB1YNATsgdjpyFgAeBxFmC1ZkfLrh6EIjllYtgmqMPLPGBZ512lBeB9PTXTE4L9o4Hu+HpRSBRk8NNUHcUwqWtjGO4NDDjPU8fNbGgrtVi+WQPlM0EXnVmXOrmRaNP9CSQNVZhbXCFwC0CXl5i3eLAOAQuEkAgF7FwEwIfBBAImQCBAgEEUoDDEAQQCDkAgQIBBFKAwxAEEAg5AIECAQRSgMMQBBAIOQCBAgEEUoDDEAQ8ftTEoi5L6Nfr0uVyhUDU+1bdFW8CCRphfj+9Ps1XZq4+yWuYPL3ECurvGmjznVJPwPi91y8bd4UXgQQNEeLYL09f9tuq7528CARx7JuHottZnb54EIhMH0UcPIyAB4EcBs/5xuLBfwTiIcr42EzAg0BiMx0Wlgi44OpBIBZk/qJJKdXrx4xnrF823govAgkaGkSyT35G3Sbss1X/u3gRiEUiaEUkRqK9GL/n9uXjrfT4UZOwhEnGC9epFsdTTz/pcG8CSTG7DHgKgPZtAp5eYt2mwQwIZAQQSAaELgRSAggkpUEbAhkBBJIBoQuBlAACSWnQhkBGAIFkQOhCICWAQFIatCGQEUAgGRC6EEgJIJCUBm0IZAQQSAaELgRSAggkpUEbAhkBBJIBoQuBlAACSWnQhkBGAIFkQOhCICWAQFIatCGQEUAgGRC6EEgJIJCUBm0IZAQQSAaELgRSAggkpUEbAhkBBJIBoQuBlAACSWnQhkBGAIFkQOhCICUwqkAkdYI2BI4igECOIsu+OYEh/4nRqAJ5yunT75pA6Nq6gnGjCkTUp1Dwi6G+CAz57GEIRxWI2W7QgzUo3RIQteylW+s2GDb63+Y1kVjlr7ZvCPYDpzwtZ8kDzzzkqNEFskIxkVDmIhB7cKeXl1hdwOghINjQF4FeBNIXFaw5m0A824D1/F4EYkCsUiBgBF57wfBnL4aoHf9olY7swZTzCHTzb956eQaxUITz4sHJHRHgO5KFYIiOvVPdMngp5MYpQz29xDIAb1q/axWtFH8E/lWX33pyuzeBGJuoFZEYCT8lqqsmDrt2VXoUiAGKWk0kVv7+9cjDrASiOvas9U1rd2VNwu4MSwwKS5uflidQBm/Gxf6fel3by62+LiMIJCUmaYf2sATisJZjOAQgAAEIQAACEIAABCAAAQhAAAIQgAAEIAABCEAAAhCAAAQgAAEIQAACEIAABCAAAQhAAAIQgAAEIAABCEAAAhCAAAQgAAEIQAACEIAABCAAAQhAAAIQgMBtAv8B0Z0rxl39CMUAAAAASUVORK5CYII=;" vertex="1" parent="1">
          <mxGeometry x="606" y="536" width="31" height="31" as="geometry" />
        </mxCell>
        <mxCell id="qxGBXVRAMQtbO13ppMym-38" value="" style="shape=image;verticalLabelPosition=bottom;labelBackgroundColor=default;verticalAlign=top;aspect=fixed;imageAspect=0;image=data:image/png,iVBORw0KGgoAAAANSUhEUgAAAMgAAADICAYAAACtWK6eAAAAAXNSR0IArs4c6QAAAERlWElmTU0AKgAAAAgAAYdpAAQAAAABAAAAGgAAAAAAA6ABAAMAAAABAAEAAKACAAQAAAABAAAAyKADAAQAAAABAAAAyAAAAACbWz2VAAAJU0lEQVR4Ae2djXnjNgyG79oO0k4SZJROcrzJwmySTVLgIvUYxqZFWrJI4uXz0CLFP+AFvthOnOTbNwoEIAABCEAAAhCAAAQgAAEIQAACEIAABCAAAQhAAAIQgAAEIAABCEAAAhCAAAQgAAEIQAACEIAABCAAAQhAAAIQgAAEIAABCEAAAhCAAAQgAAEIQAACEIAABCAAgT0JfN9zswP3Et37R7K/9T2XqM4/ewaA7x8Egl7eqRcZvHwg4tEjAVGnLQEQR5kBInGoDhMHwtjOAJEcKJIe34OYOCh1BKJO5z1JHbNNs//YNOtxk8LjjprqJFFveCaZKqRfnQl6i5dW9zFAJF/z6q47vT2D3OUMi7+JMkAkOyZCT+9B7NmDsg+BqNvwnmQHlr08g4QdfGGL3wREmzyT/ObR3OpFIM0OsPAqAdERRHIVz7aBv7ZNG2JWHMLKNiOlbdn/70l4udUIsJdlQQ2x9yAt1dbOXoI62MJmXfMyO6DZ/WtJAAu6zA4m8S9oe034lisiSWCO1mwJvozm5A72tnBKxYRIdgjCGVvUBt7mey1BHU+TvraNSCoyh+9iVcDqZGpQO+IdtoiuRSQbAY4qkLDRv1mnvd7pmOh6RLIB4qgC2eAaU24QEB1HJDcgIZAbgCYfFvUPkRSCjEAKcJwMifqJSK4EG4FcAePstqi/iORC0BHIBShOb4n6jUiy4COQDIjzrqj/iCRJAgSSwKD5i4DoIyJZkgGBLCC4fCIg2kMkCgGBfMoLOgkB0bZ7kSCQJCNofiEgese1SBDIl5yY8ka8wyvRtW5FgkDuyJyBlv5UW622FtGFLkWCQFpTZrx1QU1GJJVxQyCVwAafHtR+RFIRRARSAWuSqUH9QCQbg4lANoKabFpQfxDJhqAikA2QJp0S1C9EciO4COQGoMmHg/qHSApBRiAFOE6GgvqJSK4EG4FcAePsdlB/EcmFoCOQC1Cc3grqNyLJgo9AMiDOu0H9RyRJEiCQBAbNXwSCPiKSJRkQyAKCyycCQXuIRCEgkE95QSchELTtXiQIJMkIml8IBL3jWiQI5EtOcCMjELTvViQz/YepLK50EwJn/y6HqC1mw3Ni0xBNnkGGCNMURop6cbZQq0EikGpkLLiDgOjaoUSCQO6INkubCIiuGkYkCKQpxiy6k4Do+iFEgkDujDTLmwmIruxeJAikOb6nLoynnr7f4aJbdS0SBLJfsB+5U3zkYQefJbp/tyJBIAdH/8Dt44F7P3pr0QO7FAkCeXQq7HfePT/d3s+K/XYS3ao7kSCQ/QL86J2iHmg/mbbrLEXUka5E4vWjJhaIs0rc8WDby2rQauXp49LFozRaYetMJMN9LKXR303Lgs56r6ibNr0wKVScUWNPy1yzZeYS1LkWLusamRlOrW9BF6xgtlxr97f5L5VnbLHj3jlm08wlqHOtjGRmMLW+BV1QA/Lo/WtsuXeu+T5zCepcCyOZGUqtb0EX1ECs3b9m7zPmSq1Dg81/UXtruXbBxMN3sboAPVhC723usN+SRiB7p0LbftK2bJhVUS21OlzxIJA4XFQwuBsCCKSPUMQ+zDjUitdDdz9ocw8CMXQ9vwY226IZSemPgBeBBEUf+8P/6afgHZqHSV4EYpF+1trTM4nZYjZROibg7bNYQWNhVZaql4eXqCdapQxAwJtA1pBEbVilQKBIwNNLrCIIBiFwiQACuUSFexBYCCAQUgECBQIIpACHIQggEHIAAgUCCKQAhyEIIBByAAIFAgikAIchCCAQcgACBQIIpACHIQh4/KiJaNh/EPoqAq/L7FC1ism7ETDwNb/U33Kw6KKWPx5QY5eHuaEFvq6xdTV8ROefXjy9xDJxyOnExzfghyeOXgQSxs/LrjywLzYuiheB2Fc9yr4EZN/t+tzNg0BcBPKE9HLB1YNATsgdjpyFgAeBxFmC1ZkfLrh6EIjllYtgmqMPLPGBZ512lBeB9PTXTE4L9o4Hu+HpRSBRk8NNUHcUwqWtjGO4NDDjPU8fNbGgrtVi+WQPlM0EXnVmXOrmRaNP9CSQNVZhbXCFwC0CXl5i3eLAOAQuEkAgF7FwEwIfBBAImQCBAgEEUoDDEAQQCDkAgQIBBFKAwxAEEAg5AIECAQRSgMMQBBAIOQCBAgEEUoDDEAQ8ftTEoi5L6Nfr0uVyhUDU+1bdFW8CCRphfj+9Ps1XZq4+yWuYPL3ECurvGmjznVJPwPi91y8bd4UXgQQNEeLYL09f9tuq7528CARx7JuHottZnb54EIhMH0UcPIyAB4EcBs/5xuLBfwTiIcr42EzAg0BiMx0Wlgi44OpBIBZk/qJJKdXrx4xnrF823govAgkaGkSyT35G3Sbss1X/u3gRiEUiaEUkRqK9GL/n9uXjrfT4UZOwhEnGC9epFsdTTz/pcG8CSTG7DHgKgPZtAp5eYt2mwQwIZAQQSAaELgRSAggkpUEbAhkBBJIBoQuBlAACSWnQhkBGAIFkQOhCICWAQFIatCGQEUAgGRC6EEgJIJCUBm0IZAQQSAaELgRSAggkpUEbAhkBBJIBoQuBlAACSWnQhkBGAIFkQOhCICWAQFIatCGQEUAgGRC6EEgJIJCUBm0IZAQQSAaELgRSAggkpUEbAhkBBJIBoQuBlAACSWnQhkBGAIFkQOhCICUwqkAkdYI2BI4igECOIsu+OYEh/4nRqAJ5yunT75pA6Nq6gnGjCkTUp1Dwi6G+CAz57GEIRxWI2W7QgzUo3RIQteylW+s2GDb63+Y1kVjlr7ZvCPYDpzwtZ8kDzzzkqNEFskIxkVDmIhB7cKeXl1hdwOghINjQF4FeBNIXFaw5m0A824D1/F4EYkCsUiBgBF57wfBnL4aoHf9olY7swZTzCHTzb956eQaxUITz4sHJHRHgO5KFYIiOvVPdMngp5MYpQz29xDIAb1q/axWtFH8E/lWX33pyuzeBGJuoFZEYCT8lqqsmDrt2VXoUiAGKWk0kVv7+9cjDrASiOvas9U1rd2VNwu4MSwwKS5uflidQBm/Gxf6fel3by62+LiMIJCUmaYf2sATisJZjOAQgAAEIQAACEIAABCAAAQhAAAIQgAAEIAABCEAAAhCAAAQgAAEIQAACEIAABCAAAQhAAAIQgAAEIAABCEAAAhCAAAQgAAEIQAACEIAABCAAAQhAAAIQgMBtAv8B0Z0rxl39CMUAAAAASUVORK5CYII=;" vertex="1" parent="1">
          <mxGeometry x="633" y="517.5" width="31" height="31" as="geometry" />
        </mxCell>
        <mxCell id="qxGBXVRAMQtbO13ppMym-39" value="" style="shape=image;verticalLabelPosition=bottom;labelBackgroundColor=default;verticalAlign=top;aspect=fixed;imageAspect=0;image=data:image/png,iVBORw0KGgoAAAANSUhEUgAAAMgAAADICAYAAACtWK6eAAAAAXNSR0IArs4c6QAAAERlWElmTU0AKgAAAAgAAYdpAAQAAAABAAAAGgAAAAAAA6ABAAMAAAABAAEAAKACAAQAAAABAAAAyKADAAQAAAABAAAAyAAAAACbWz2VAAAJDElEQVR4Ae2cQWLiOBBFw8zcIsdo9m1O1umb5Cbj7OEOs8o1GCkxdIUY4mC7VF96LBrZ2K7SK39LH5R+eOAFAQhAAAIQgAAEIAABCEAAAhCAAAQgAAEIQAACEIAABCAAAQhAAAIQgAAEIAABCEAAAhCAAAQgAAEIQAACEIAABCAAAQhAAAIQgAAEIACBpglsovZ+u912KbfueDz+jJojed1PYLPZvJiz+/1+35vtMM1QAkmieBoE0YUhRCJuBJJofiehPLkFnBAohEDyaJGE8Svl203ImUMqJpBFkroXZkQpLpBh1Mji4AWBM4EklF2Eaddf54wKNMzIUSA6ISMTGGYUxVMsKpAoEIpXgQTGCHQ/fvz4d+wDz33FBJKnVqmjnWdniSVHoMuzjJJZFxMIo0fJsuvELn2fFBFI6aeCzu1BpolA0VGkiEBypyk9BBQIlBKIAhtyjEOgK5VKEYGUnleWgk1cPQJFBJIw9XqoyLhFAqUE0iJr+ixIoIhAhvU2grhIuTUCRQTSGmT6O49AyRW+RQQyLELr52Hj7BYIlJ5tFBFILmzpjrdwc9XQx5KjR+ZXTCB5FEEkNdzC6/Uhwv1R/O9BhhWb3XqYubIigSyO0qNH5lZcIDkJRJIp8DIE+sPhsDPbxZrFpli2xxGGUpsP7bIEoogjUwghEPxI2RsyUvRoD8u/o8B5fX3tHx8f85Svi5ITefgSiOI7bK9DeBCbEH7E0minHVEcmX6IKZa9DaINsTY32usRiPCN1VjvwgkEPzJWprr3pYdiiG+sxiiH8SA2OfyIpVF3e5haPUftZTgPYkHhRyyN+tpRfYclHW6KZZPDj1ga1bXzfy/6FL1XoQUy+JGw89PoxY2cn8rDL6QHsYVNfuQ/fh+xRPTb0X2HJRzag9hE8SOWhm5bwXdYujICyUkjEls6yXaYRYhT6YX2IJedUJm3XubN9juBSIsQp9ZESiD8iDi1rPGOU324hTfpl6XmR8RLIvG31XyHJSrlQWzi+BFLI25bWRyZqtQUy94GqkO27UMLbYUfA2/VQVYg+JFbZY3xWQ0PMTkPYkuPH7E0YrXVp1YnmrIe5NSB/I4fsTTKt2sRRyZZhUByR5JIjvmdV3kC6feOau4rWQ9yeRukp9buch/b/gRqq4O0B7HlZ1GjpVGmPUytnstEXydqNUPhCQ9+5ETC970m32HJVSeQ3DlEYkvs0pZbhDiVSjUexHY4P83sNu11CdTMuxoPYm8B/IilsW67Rt9hiVUpkNxBfkS0ZV6nXavvsLSq9CC2g/gRS2PRdrW+w1Kq0oPYDtY8P7b99G4r/vHTPYyqFwj/M8o9t8Xtc1p66FTrQWyJMe2Wxrx2C77DEqreg9jO4kcsje+3WxNHJtSUQHKHk0hY1JhB3PGqaRHi1O5X70EuQaSn4O5yH9tfE2iVWxMexJYfP2JpTGsPU6vnaUfXdVRzU6xT+fAjJxK331v0HZZIswLJEBCJvRVG2038GDja82Fncx7EwshPR7tN+yMB+Dw8NOdB7C2AH7E0PrZb9h2WRNMCySBY1Ghvh/d2677DEmnag1gQ+JEzjeZ9x5lEajTtQSwI5tvvNFpZhGhrf6uNQAY6LGpMyyr40uKTVpr3IJZIy6Yd32HvhD9tPMgfFudWa34EcZxL/6mBQD4hed+RRNLMosYWFyFeKfun3XiQT0jed6Sn6u7KR1XtbqWf9xYND3KFXAt+ZJhaPV9BwO5EgCnWF7dBrX4E3/FF4YePEcgETjWKBN8xofDpEDzIBE75aTvhMJlD8B3TS4UHmcCqJj+C75hQcHMIAjEwbjVrWNSI77hV4fHP8CDjXK7uFfYjLEK8WtXrH+BBrrMZ/UTVj7AIcbScX+5EIF8i+niA4qJGVVF/JF9mCw9yB3cl047vuKPA5hRGEAPjm83+m8dzuCABBCJYNFL2I4BA/FgTSZAAAhEsGin7EUAgfqyJJEgAgQgWjZT9CCAQP9ZEEiSAQASLRsp+BBCIH2siCRJAIIJFI2U/AgjEjzWRBAkgEMGikbIfAQTix5pIggQQiGDRSNmPAALxY00kQQIIRLBopOxHAIH4sSaSIAEEIlg0UvYjgED8WBNJkAACESwaKfsRQCB+rIkkSACBCBaNlP0IIBA/1kQSJIBABItGyn4EEIgfayIJEkAggkUjZT8CCMSPNZEECSAQwaKRsh8BBOLHmkiCBBCIYNFI2Y8AAvFjTSRBAghEsGik7EcAgfixJpIgAQQiWDRS9iOAQPxYE0mQAAIRLBop+xFAIH6siSRIAIEIFo2U/QggED/WRBIkgEAEi0bKfgQQiB9rIgkSQCCCRSNlPwIIxI81kQQJIBDBopGyHwEE4seaSIIEEIhg0UjZjwAC8WNNJEECCESwaKTsRwCB+LEmkiABBCJYNFL2I4BA/FgTSZAAAhEsGin7EUAgfqyJJEgAgQgWjZT9CCAQP9ZEEiSAQO4s2n6/7+88ldOECCAQoWKRqj8BBDKPeT/vdM6OTgCBzKjQZrN5mXE6pwoQQCDzitTPO52zoxNAIDMqNBj1fsYlODU4AQQys0BpmvV75iU4PTABBDKzOHkUQSQzIQY+HYEsUJwkkqd0mX6BS3GJYAQQyEIFORwOu4UuxWUCEUAgCxYjTbUQyYI8I1wKgSxYhexH0kiSdIJxXxBr0UshkBXwZ0+CSFYAW+CSCGQl6FkkjCYrwXW8LAJZGTZCWRnwypdHICsDPl0eoZxIaL0jEOd6nfwJHsUZ/J3h/rnzPE6bQSCLJJ++3W4fjsfjz9Ts8vZKr36l6zZx2U0TvQzeySSUpySUX2ukmb8oWOO6rVyTKVaASq/oT/oA3ZNOAYEEKt/SQkk+5yVQ9yRTYfgNXLY5U6/8JcDJ6wTuYvjUEEj4Er2Z+W95FMSxXFERyHIsV7/SlBEliWOXRo5+9WQaCYBABAudhZLTHr4ifuvBMGr0bxv8AwEIQAACEIAABCAAAQhAAAIQgAAEIAABCEAAAhCAAAQgAAEIQAACEIAABCAAAQhAAAIQgAAEIAABCEAAAhCAAAQgAAEIQAACEIAABCAAAQhAAAIQgAAEIACBkgT+B+0H6QCC7xwQAAAAAElFTkSuQmCC;" vertex="1" parent="1">
          <mxGeometry x="463" y="501" width="64" height="64" as="geometry" />
        </mxCell>
        <mxCell id="qxGBXVRAMQtbO13ppMym-40" value="&lt;font style=&quot;font-size: 16px;&quot;&gt;结果融合&lt;/font&gt;" style="text;html=1;align=center;verticalAlign=middle;whiteSpace=wrap;rounded=0;" vertex="1" parent="1">
          <mxGeometry x="461.5" y="565" width="67" height="30" as="geometry" />
        </mxCell>
        <mxCell id="qxGBXVRAMQtbO13ppMym-41" value="&lt;span style=&quot;font-size: 16px;&quot;&gt;blogs候选文档块&lt;/span&gt;" style="text;html=1;align=center;verticalAlign=middle;whiteSpace=wrap;rounded=0;" vertex="1" parent="1">
          <mxGeometry x="580" y="571" width="133" height="29" as="geometry" />
        </mxCell>
      </root>
    </mxGraphModel>
  </diagram>
</mxfile>
